<svg width="51" height="51" viewBox="0 0 51 51" fill="none" xmlns="http://www.w3.org/2000/svg">
<path d="M51 35.6963C50.8026 35.1353 50.6786 34.5346 50.388 34.0241C50.0464 33.4539 49.6351 32.9264 49.1632 32.4531C48.9261 32.2398 48.7756 31.9505 48.7392 31.6379C48.5588 30.0087 47.2658 28.831 45.636 28.7715C43.9837 28.7112 42.5618 29.764 42.3092 31.3733C42.2178 31.9559 41.9482 32.3065 41.5659 32.6976C40.1226 34.1748 39.6535 35.9382 40.2276 37.897C40.8077 39.8766 42.1819 41.1156 44.2272 41.6372C44.3234 41.6617 44.4201 41.6847 44.517 41.7068C44.5968 41.7247 44.6766 41.74 44.7805 41.7616V46.0704H37.503V45.4297C37.503 32.9271 37.503 20.4244 37.503 7.92173C37.503 7.7436 37.5092 7.56508 37.4997 7.38734C37.4707 6.8501 37.2469 6.62938 36.6905 6.62354C35.8124 6.61419 34.9343 6.62107 33.9947 6.62107C33.9857 6.42957 33.971 6.26014 33.9708 6.09057C33.969 4.63307 33.9716 3.17544 33.9689 1.71794C33.9677 1.03671 33.7394 0.808077 33.0528 0.807817C28.0242 0.806086 22.9956 0.806086 17.9671 0.807817C17.2752 0.807817 17.042 1.03554 17.0405 1.70872C17.0374 3.15013 17.0371 4.59153 17.0396 6.03293V6.62042C16.1924 6.62042 15.3849 6.61964 14.5773 6.62042C13.6629 6.62146 13.5069 6.77245 13.5067 7.66973C13.506 20.2375 13.506 32.805 13.5067 45.3721V46.0782H6.23687V41.7557C7.34451 41.5955 8.3795 41.1212 9.21323 40.3918C9.78649 39.8848 10.2432 39.265 10.5532 38.5732C10.8632 37.8815 11.0195 37.1335 11.0118 36.3785C11.0042 35.6235 10.8326 34.8787 10.5086 34.1931C10.1846 33.5074 9.7154 32.8966 9.13194 32.4008C9.01871 32.3129 8.92687 32.2016 8.86298 32.0749C8.7991 31.9482 8.76477 31.8093 8.76247 31.6681C8.66681 30.0906 7.28354 28.8257 5.63458 28.7713C3.96806 28.7162 2.50802 29.8601 2.30433 31.4353C2.25624 31.8748 2.0438 32.2816 1.70763 32.5778C0.195568 34.0368 -0.345528 35.8138 0.217522 37.8231C0.779102 39.8268 2.15067 41.091 4.21233 41.63C4.38795 41.6759 4.56663 41.7107 4.77564 41.7578V46.1121H2.79101C2.19351 46.1121 1.596 46.1102 0.998623 46.1121C0.234146 46.1152 0.0127678 46.3266 0.0109062 47.0572C0.0086441 47.9155 0.0261993 48.7742 0.00318146 49.632C-0.00719452 50.0193 0.0976486 50.3262 0.408707 50.5643H51V46.5798C50.7829 46.227 50.467 46.0911 50.0446 46.106C49.4326 46.1277 48.8194 46.1116 48.2067 46.1116H46.2341V41.7735C48.795 41.2273 50.4154 39.8013 50.926 37.2743C50.9438 37.2305 50.9687 37.1899 51 37.1541V35.6963ZM36.0806 46.0829H29.1073V45.5412C29.1073 43.3871 29.1069 41.2331 29.106 39.0792C29.1049 38.4171 28.8919 38.2086 28.2134 38.207C26.421 38.2028 24.6286 38.2028 22.8362 38.207C22.1045 38.2083 21.9049 38.4088 21.9049 39.1399C21.9029 41.2778 21.9026 43.4157 21.9041 45.5536V46.0797H14.936V8.00924H36.0806V46.0829ZM49.5921 49.1843H1.43541V47.512H49.5921V49.1843ZM32.5457 2.18638V6.58627H18.4637V2.18638H32.5457ZM43.6385 32.1934C43.5609 30.9739 44.4185 30.0447 45.5461 30.0793C46.6955 30.1147 47.4865 31.0521 47.3369 32.2346C47.2809 32.6779 47.5057 32.9154 47.8424 33.1459C48.5671 33.6294 49.1115 34.3293 49.394 35.1404C49.6765 35.9515 49.6818 36.8301 49.4092 37.6444C49.1474 38.4538 48.6286 39.1609 47.9278 39.6635C47.227 40.1661 46.3805 40.4382 45.5108 40.4403C44.641 40.4424 43.7932 40.1744 43.0898 39.6752C42.3865 39.176 41.8641 38.4714 41.5982 37.6633C41.3227 36.8497 41.3247 35.9709 41.6039 35.1586C41.8831 34.3462 42.4245 33.6439 43.147 33.157C43.5247 32.8968 43.7608 32.6189 43.6385 32.1934ZM9.61089 36.1677C9.67582 38.9905 7.1034 40.9916 4.49918 40.2993C2.84689 39.8599 1.80542 38.7971 1.49489 37.148C1.18436 35.4988 1.7812 34.1577 3.15502 33.1609C3.49881 32.9114 3.73457 32.6724 3.6739 32.2077C3.52143 31.0406 4.34883 30.0926 5.49568 30.0793C6.60913 30.0664 7.46967 30.9786 7.36642 32.1273C7.32278 32.6142 7.49029 32.9 7.88849 33.1736C9.00354 33.9407 9.56712 35.0171 9.61089 36.1677ZM23.3301 46.0926V39.5948H27.6704V46.0926H23.3301Z" fill="white"/>
<path d="M23.133 26.6579C23.133 27.272 23.125 27.8861 23.1351 28.5001C23.1449 29.0843 23.387 29.3276 23.9842 29.334C24.9942 29.3449 26.0043 29.3449 27.0145 29.334C27.6363 29.3277 27.8725 29.0857 27.8759 28.4641C27.8825 27.2523 27.8825 26.0406 27.8759 24.8288C27.8727 24.1852 27.629 23.9472 26.9774 23.9435C25.984 23.9379 24.9905 23.9381 23.9971 23.9441C23.4011 23.9486 23.1467 24.1908 23.1359 24.7679C23.1238 25.3973 23.133 26.0277 23.133 26.6579ZM24.5521 25.3299H26.4577V27.9432H24.5521V25.3299Z" fill="white"/>
<path d="M23.1327 33.7689C23.1327 34.3831 23.1247 34.9973 23.1351 35.6113C23.1449 36.1938 23.393 36.4465 23.9826 36.4531C24.9926 36.4648 26.0028 36.4648 27.0132 36.4531C27.6119 36.4471 27.8696 36.201 27.8743 35.6257C27.8844 34.3812 27.8844 33.1367 27.8743 31.8923C27.8703 31.3081 27.6188 31.0587 27.028 31.0526C26.0177 31.0422 25.0074 31.0422 23.9972 31.0526C23.3833 31.0582 23.1413 31.3086 23.1337 31.9264C23.1267 32.5406 23.1325 33.1547 23.1327 33.7689ZM26.4588 35.0552H24.5563V32.4431H26.4588V35.0552Z" fill="white"/>
<path d="M23.1335 12.4049C23.1335 13.0365 23.1239 13.6684 23.136 14.3004C23.1468 14.8614 23.3928 15.1004 23.9596 15.1043C24.9884 15.1116 26.0173 15.1116 27.0462 15.1043C27.6151 15.1006 27.8696 14.8626 27.8741 14.3057C27.8846 13.0426 27.8844 11.7794 27.8735 10.5159C27.8684 9.9836 27.615 9.74069 27.0767 9.73549C26.0312 9.72554 24.9857 9.72554 23.94 9.73549C23.399 9.74043 23.1495 9.98101 23.137 10.5107C23.1219 11.1413 23.1335 11.7732 23.1335 12.4049ZM24.5603 13.7247V11.1294H26.4508V13.7247H24.5603Z" fill="white"/>
<path d="M29.5887 33.7596C29.5887 34.3736 29.5839 34.9876 29.59 35.6014C29.5957 36.1904 29.8332 36.4454 30.4201 36.4528C31.4464 36.4653 32.4728 36.4653 33.4994 36.4528C34.0598 36.4456 34.3074 36.1966 34.3123 35.6348C34.3232 34.3747 34.323 33.1146 34.3116 31.8543C34.3062 31.2983 34.0538 31.0592 33.4837 31.0534C32.4574 31.043 31.4309 31.0432 30.4044 31.0541C29.8421 31.0608 29.5977 31.3152 29.5905 31.8695C29.5825 32.4994 29.5887 33.1296 29.5887 33.7596ZM32.8859 32.4368V35.0699H31.01V32.4368H32.8859Z" fill="white"/>
<path d="M21.4219 33.7509C21.4219 33.1208 21.4285 32.4906 21.4199 31.8606C21.4123 31.3103 21.1652 31.06 20.5979 31.0537C19.5716 31.0425 18.5452 31.0425 17.5187 31.0537C16.9543 31.06 16.7041 31.3033 16.6988 31.8631C16.6869 33.1232 16.6869 34.3833 16.6988 35.6434C16.7042 36.2007 16.9562 36.4461 17.5209 36.4528C18.5472 36.465 19.5736 36.465 20.6001 36.4528C21.166 36.4457 21.4123 36.1916 21.4196 35.6414C21.4284 35.0112 21.4219 34.381 21.4219 33.7509ZM20.001 32.4377V35.0535H18.1228V32.4377H20.001Z" fill="white"/>
<path d="M23.1326 19.5575C23.1326 20.1547 23.1269 20.7531 23.134 21.3509C23.1415 21.9749 23.3719 22.2123 23.9946 22.2178C25.0044 22.2264 26.0143 22.2264 27.0243 22.2178C27.6248 22.2123 27.8707 21.975 27.8747 21.3917C27.8836 20.1476 27.8836 18.9035 27.8747 17.6595C27.87 17.0791 27.6157 16.8444 27.0164 16.8415C26.0064 16.8362 24.9965 16.8362 23.9866 16.8415C23.3917 16.8449 23.1452 17.0821 23.1351 17.6674C23.1243 18.2981 23.1326 18.9278 23.1326 19.5575ZM26.4531 18.2232V20.8229H24.557V18.2236L26.4531 18.2232Z" fill="white"/>
<path d="M29.5887 26.674C29.5887 27.2894 29.5826 27.9049 29.5904 28.5202C29.5977 29.0799 29.8339 29.3262 30.4055 29.3332C31.4343 29.346 32.4632 29.346 33.4921 29.3332C34.0751 29.3263 34.3069 29.0995 34.3121 28.5254C34.3234 27.2622 34.3231 25.999 34.311 24.7357C34.3053 24.1816 34.0489 23.9481 33.4736 23.9437C32.4612 23.9356 31.4489 23.9356 30.4366 23.9437C29.8432 23.9485 29.5963 24.1969 29.59 24.7789C29.5834 25.4106 29.5887 26.0423 29.5887 26.674ZM32.8762 25.3176V27.9454H31.0201V25.3176H32.8762Z" fill="white"/>
<path d="M21.4221 26.6517C21.4221 26.0201 21.4284 25.3883 21.4203 24.7562C21.4132 24.2018 21.1651 23.9493 20.6019 23.9438C19.573 23.9339 18.5441 23.9339 17.5153 23.9438C16.9678 23.9489 16.7075 24.1827 16.7014 24.7092C16.6863 25.9885 16.6859 27.2679 16.7002 28.5474C16.7055 29.0879 16.9464 29.3246 17.4928 29.3319C18.5381 29.3456 19.5836 29.3456 20.6294 29.3319C21.1737 29.3243 21.4122 29.0761 21.4201 28.5464C21.4293 27.9151 21.4221 27.2834 21.4221 26.6517ZM19.9985 25.3248V27.9495H18.125V25.3248H19.9985Z" fill="white"/>
<path d="M16.6942 12.4296C16.6942 13.0449 16.685 13.6603 16.6966 14.2755C16.7079 14.8832 16.9305 15.1002 17.5384 15.1038C18.5506 15.1098 19.5628 15.1098 20.575 15.1038C21.1758 15.1004 21.4169 14.8665 21.4196 14.2791C21.4252 13.0327 21.4252 11.7859 21.4196 10.5386C21.4165 9.97801 21.1753 9.7386 20.6037 9.73366C19.5749 9.72501 18.546 9.72501 17.5171 9.73366C16.9354 9.7386 16.7098 9.95879 16.6974 10.5351C16.6844 11.167 16.6949 11.7988 16.6942 12.4296ZM19.9937 11.1174V13.716H18.1207V11.1174H19.9937Z" fill="white"/>
<path d="M29.5885 12.4425C29.5885 13.0578 29.5829 13.6732 29.5899 14.2885C29.5965 14.8552 29.8334 15.0999 30.3943 15.1041C31.4395 15.1117 32.4849 15.1117 33.5303 15.1041C34.0563 15.0997 34.302 14.8793 34.3084 14.3658C34.3236 13.0707 34.3236 11.7754 34.3084 10.4798C34.3024 9.96427 34.0608 9.74199 33.5342 9.7368C32.4723 9.72615 31.4104 9.72641 30.3484 9.73758C29.8409 9.74342 29.5997 9.99374 29.5911 10.5C29.5805 11.1465 29.5887 11.7943 29.5885 12.4425ZM31.0121 13.7172V11.1352H32.8958V13.7167L31.0121 13.7172Z" fill="white"/>
<path d="M29.5884 19.5643C29.5884 20.1797 29.5823 20.7951 29.5902 21.4104C29.5973 21.9696 29.8334 22.2105 30.407 22.2168C31.4359 22.2278 32.4648 22.2278 33.4937 22.2168C34.0791 22.2109 34.3069 21.9906 34.3121 21.4134C34.3234 20.1504 34.3231 18.8873 34.311 17.6241C34.3051 17.0623 34.0574 16.8443 33.4728 16.8412C32.4606 16.8358 31.4483 16.8358 30.4359 16.8412C29.8388 16.8444 29.5967 17.0829 29.5903 17.6693C29.5831 18.3011 29.5884 18.9327 29.5884 19.5643ZM31.0139 20.8359V18.2392H32.8839V20.8359H31.0139Z" fill="white"/>
<path d="M21.4216 19.5165C21.4216 18.8848 21.4291 18.2531 21.4193 17.6217C21.4111 17.0959 21.1593 16.8466 20.6253 16.8427C19.5798 16.8347 18.5343 16.8347 17.4888 16.8427C16.9672 16.8467 16.7093 17.0715 16.7027 17.5759C16.686 18.8713 16.6853 20.1668 16.7007 21.4625C16.7063 21.9808 16.9439 22.2089 17.4671 22.2156C18.529 22.2286 19.5911 22.2286 20.6534 22.2156C21.1692 22.2091 21.41 21.9628 21.4188 21.4605C21.4305 20.8122 21.4216 20.1642 21.4216 19.5165ZM18.1248 20.8338V18.2389H19.9971V20.8338H18.1248Z" fill="white"/>
</svg>
