<svg width="154" height="71" viewBox="0 0 154 71" fill="none" xmlns="http://www.w3.org/2000/svg">
<path d="M92.2669 32.856C92.2786 36.5003 93.0509 40.1385 94.5313 43.4087C96.0059 46.6849 98.1826 49.581 100.81 51.8315C103.425 54.088 106.503 55.6688 109.657 56.4894C112.817 57.322 116.041 57.3884 119.054 56.8333C122.074 56.2601 124.841 55.0836 127.217 53.4907C129.604 51.9039 131.6 49.8947 133.191 47.6925C136.386 43.2458 137.931 38.075 137.937 32.856C137.913 27.637 136.345 22.4844 133.162 18.0498C131.57 15.8475 129.575 13.8504 127.199 12.2636C124.824 10.6768 122.068 9.49421 119.054 8.92102C116.047 8.3599 112.823 8.42024 109.669 9.24683C106.515 10.0674 103.437 11.6361 100.822 13.8926C98.1943 16.1371 96.0176 19.0332 94.5372 22.3034C93.0509 25.5736 92.2786 29.2118 92.2669 32.856ZM92.2669 32.856C92.261 25.5736 94.6484 18.279 99.2768 12.336C101.588 9.37354 104.455 6.74895 107.814 4.73375C111.161 2.71252 114.999 1.30671 119.06 0.739558C123.109 0.178439 127.416 0.462015 131.547 1.71699C135.678 2.9599 139.628 5.16214 142.963 8.1789C146.31 11.1836 149.054 14.9847 150.915 19.2384C152.782 23.492 153.741 28.1921 153.747 32.856C153.741 37.52 152.764 42.2201 150.892 46.4677C149.025 50.7213 146.281 54.5104 142.934 57.509C139.598 60.5198 135.655 62.7099 131.529 63.9589C127.404 65.2139 123.109 65.4974 119.06 64.9363C115.011 64.3692 111.173 62.9694 107.826 60.9542C104.473 58.945 101.6 56.3265 99.2885 53.364C94.6484 47.433 92.261 40.1325 92.2669 32.856Z" fill="url(#paint0_linear)"/>
<path d="M153.735 32.8138C153.741 40.1325 151.301 47.4632 146.62 53.3821C144.279 56.3325 141.388 58.9329 138.03 60.9361C134.677 62.9392 130.844 64.3269 126.801 64.8941C122.764 65.4552 118.48 65.1776 114.355 63.9468C110.236 62.7159 106.28 60.5559 102.922 57.5573C99.5571 54.5707 96.7777 50.7816 94.8936 46.5099C92.9978 42.2442 92.003 37.5139 91.9972 32.8138C92.003 28.1137 92.9802 23.3773 94.8702 19.1116C96.7543 14.8339 99.5279 11.0388 102.892 8.04614C106.251 5.04748 110.212 2.86938 114.338 1.64457C118.469 0.407696 122.758 0.136185 126.801 0.697303C130.85 1.27049 134.689 2.66423 138.041 4.6734C141.406 6.67653 144.297 9.28905 146.631 12.2394C151.306 18.1644 153.746 25.4951 153.735 32.8138ZM153.735 32.8138C153.723 29.1514 152.939 25.4951 151.441 22.2189C149.949 18.9367 147.749 16.0406 145.104 13.8082C142.465 11.5637 139.376 10.007 136.216 9.19855C133.05 8.38402 129.82 8.32369 126.801 8.8848C123.776 9.45799 120.996 10.6345 118.603 12.2213C116.204 13.8082 114.186 15.7992 112.571 18.0015C109.341 22.4361 107.743 27.5948 107.726 32.8198C107.731 38.0448 109.305 43.2216 112.541 47.6683C114.162 49.8706 116.181 51.8737 118.586 53.4605C120.985 55.0534 123.77 56.2239 126.801 56.7971C129.826 57.3521 133.062 57.2918 136.228 56.4712C139.387 55.6567 142.477 54.094 145.116 51.8435C147.761 49.6051 149.955 46.703 151.447 43.4207C152.945 40.1325 153.729 36.4761 153.735 32.8138Z" fill="url(#paint1_linear)"/>
<path d="M122.735 24.5598C121.213 26.9129 119.862 28.9884 118.516 31.07C118.247 31.4863 117.977 31.9087 117.749 32.3491C116.433 34.9194 116.971 37.8215 119.101 39.6557C121.207 41.4718 124.203 41.4778 126.316 39.6738C128.428 37.8638 129.083 34.8832 127.667 32.3853C126.199 29.7969 124.508 27.3473 122.735 24.5598Z" fill="#E6462C"/>
<path d="M122.325 38.642C122.184 38.5756 122.155 38.461 122.173 38.3162C122.26 37.5379 122.348 36.7535 122.436 35.9752C122.459 35.77 122.483 35.5649 122.506 35.3598C122.506 35.3417 122.506 35.3236 122.506 35.2994C122.477 35.2994 122.448 35.2994 122.418 35.2994C121.921 35.2994 121.424 35.2994 120.926 35.2994C120.768 35.2994 120.681 35.2089 120.698 35.0701C120.704 35.0339 120.722 34.9977 120.733 34.9676C121.441 33.5256 122.155 32.0896 122.863 30.6476C122.933 30.5088 123.039 30.4545 123.156 30.5088C123.244 30.551 123.284 30.6174 123.279 30.72C123.261 30.8949 123.244 31.0699 123.226 31.2449C123.167 31.7939 123.103 32.349 123.045 32.8981C123.015 33.1635 122.986 33.423 122.957 33.7005C122.992 33.7005 123.021 33.7005 123.05 33.7005C123.524 33.7005 123.998 33.7005 124.472 33.7005C124.706 33.7005 124.806 33.8695 124.706 34.0867C123.998 35.5528 123.29 37.019 122.582 38.4851C122.553 38.5515 122.483 38.5998 122.43 38.6541C122.401 38.642 122.366 38.642 122.325 38.642Z" fill="white"/>
<path d="M3.59446 59.4934L5.79446 51.8484H7.38946L9.57846 59.4934H8.90746L8.29146 57.3814H4.88146L4.27646 59.4934H3.59446ZM6.28946 52.4424L5.04646 56.7764H8.12646L6.88346 52.4424H6.28946ZM9.4566 52.4644V51.8484H14.9566V52.4644H12.5586V59.4934H11.8766V52.4644H9.4566ZM16.7426 56.4794V59.4934H16.0606V51.8484H18.8656C19.665 51.8484 20.259 52.0317 20.6476 52.3984C21.0436 52.7577 21.2416 53.3297 21.2416 54.1144C21.2416 55.3391 20.7503 56.0834 19.7676 56.3474L21.3406 59.4934H20.5816L19.0746 56.4794H16.7426ZM20.5376 54.1254C20.5376 53.5534 20.402 53.1317 20.1306 52.8604C19.8593 52.5891 19.4376 52.4534 18.8656 52.4534H16.7426V55.8744H18.8656C19.9803 55.8744 20.5376 55.2914 20.5376 54.1254ZM23.2352 55.7094C23.2352 56.8754 23.3892 57.7151 23.6972 58.2284C24.0052 58.7344 24.6102 58.9874 25.5122 58.9874C26.4215 58.9874 27.0302 58.7381 27.3382 58.2394C27.6462 57.7407 27.8002 56.9084 27.8002 55.7424C27.8002 54.5691 27.6389 53.7111 27.3162 53.1684C26.9935 52.6257 26.3922 52.3544 25.5122 52.3544C24.6029 52.3544 23.9905 52.6477 23.6752 53.2344C23.5065 53.5351 23.3892 53.8797 23.3232 54.2684C23.2645 54.6571 23.2352 55.1374 23.2352 55.7094ZM28.5042 55.7314C28.5042 57.0954 28.2879 58.0817 27.8552 58.6904C27.4299 59.2991 26.6489 59.6034 25.5122 59.6034C24.3829 59.6034 23.6019 59.2917 23.1692 58.6684C22.7439 58.0451 22.5312 57.0624 22.5312 55.7204C22.5312 54.3711 22.7475 53.3701 23.1802 52.7174C23.6129 52.0647 24.3902 51.7384 25.5122 51.7384C26.6342 51.7384 27.4115 52.0647 27.8442 52.7174C28.2842 53.3627 28.5042 54.3674 28.5042 55.7314Z" fill="white"/>
<path d="M29.9684 59.4934V52.0134H32.5534L33.8734 57.4694L35.1934 52.0134H37.7784V59.4934H36.2604V53.7074H36.0954L34.6324 59.1634H33.1144L31.6514 53.7074H31.4864V59.4934H29.9684ZM39.4108 59.4934V52.0134H44.2508V53.3334H40.9288V55.0824H43.5908V56.3804H40.9288V58.1734H44.2508V59.4934H39.4108ZM44.8306 53.3554V52.0134H50.3306V53.3554H48.3506V59.4934H46.8326V53.3554H44.8306ZM51.2917 59.4934V52.0134H56.1317V53.3334H52.8097V55.0824H55.4717V56.3804H52.8097V58.1734H56.1317V59.4934H51.2917ZM58.9005 56.9854V59.4934H57.3825V52.0134H60.2865C62.0465 52.0134 62.9265 52.8347 62.9265 54.4774C62.9265 55.4527 62.5598 56.1714 61.8265 56.6334L62.8935 59.4934H61.2325L60.3635 56.9854H58.9005ZM60.3085 55.6874C60.6678 55.6874 60.9355 55.5774 61.1115 55.3574C61.2875 55.1374 61.3755 54.8477 61.3755 54.4884C61.3755 54.1291 61.2801 53.8431 61.0895 53.6304C60.9061 53.4177 60.6385 53.3114 60.2865 53.3114H58.9005V55.6874H60.3085Z" fill="#FFFDFC"/>
<path d="M12.8879 32.8555C12.8266 34.5244 12.4522 36.1653 11.7855 37.6873C11.2136 38.9926 10.4718 40.2115 9.58077 41.3104C8.86119 42.2106 7.99945 42.9792 7.03186 43.5838C6.37907 44.0302 5.62741 44.2991 4.84677 44.3656C4.40733 44.3455 3.9695 44.2978 3.53572 44.2225C2.9086 44.1279 1.90565 43.9229 0.526855 43.6074V41.9491C2.94001 41.5137 5.1805 40.3709 6.98051 38.6573C7.83847 37.8394 8.58755 36.9079 9.20821 35.8871C9.79991 34.9251 10.2343 33.8693 10.4941 32.7621C10.4024 32.1612 10.2647 31.4744 10.0812 30.7016C9.8976 29.9287 9.67545 29.1157 9.4147 28.2626C9.15467 27.4101 8.87134 26.5573 8.5647 25.7041C8.25806 24.851 7.95179 24.0462 7.64588 23.2899L10.0353 21.5415L10.7695 21.8254C10.9836 22.5517 11.2057 23.2858 11.4359 24.0278C11.6661 24.7698 11.8729 25.4646 12.0565 26.112C12.24 26.7601 12.4083 27.3362 12.5612 27.8401C12.6637 28.2164 12.802 28.5813 12.9742 28.9295C13.2766 29.2131 13.651 29.4022 14.0536 29.4748C14.7276 29.6029 15.4127 29.6584 16.0978 29.6404V33.4763C14.9946 33.5445 13.8921 33.3313 12.8879 32.8555Z" fill="#FFFDFC"/>
<path d="M25.841 34.6796L26.1163 36.5733L15.8278 40.7889L15.5514 38.894L25.841 34.6796Z" fill="#FFFDFC"/>
<path d="M29.9281 33.4719C29.4216 33.4709 28.9157 33.4393 28.4128 33.3773C27.8966 33.3155 27.3928 33.1719 26.9192 32.9514C26.422 32.7134 25.9708 32.3844 25.5874 31.9803C25.1317 31.483 24.7799 30.8944 24.5539 30.2511C24.2123 31.0967 23.6574 31.8327 22.9467 32.3825C21.8746 33.1088 19.5934 33.4719 16.103 33.4719C15.9354 33.4702 15.772 33.4177 15.6331 33.321C15.4942 33.2242 15.386 33.0875 15.3219 32.9278C15.1258 32.5066 15.0313 32.0428 15.0465 31.5759C15.0288 31.0943 15.1232 30.6153 15.3219 30.179C15.386 30.0193 15.4942 29.8825 15.6331 29.7857C15.772 29.689 15.9354 29.6365 16.103 29.6348C18.3307 29.773 20.5652 29.5328 22.7173 28.924L23.9574 21.7726H26.4374C26.3763 22.625 26.338 23.3276 26.3227 23.8804C26.3074 24.4331 26.2921 24.8751 26.2768 25.2063C26.2615 25.5375 26.2539 25.7831 26.2539 25.9408V26.3667C26.2014 26.8579 26.2782 27.3545 26.4763 27.8045C26.6743 28.2545 26.9862 28.6412 27.3792 28.924C28.1471 29.4033 29.0306 29.6497 29.9281 29.6348V33.4719Z" fill="#FFFDFC"/>
<path d="M46.7445 36.2668L47.0198 38.1606L36.7314 42.3762L36.4561 40.4813L46.7445 36.2668Z" fill="#FFFDFC"/>
<path d="M46.4169 33.4717C45.5398 33.4566 44.6678 33.3294 43.821 33.0932C42.8467 32.8372 41.8883 32.5208 40.9509 32.1458C40.004 31.7702 39.1081 31.3677 38.2632 30.9381C37.553 30.5905 36.8699 30.1868 36.2202 29.7304C35.728 30.4136 35.1824 31.0541 34.589 31.6456C34.1427 32.0908 33.6408 32.4726 33.0966 32.7811C32.6223 33.0445 32.1104 33.2285 31.5802 33.3264C31.0342 33.4232 30.4811 33.4707 29.9271 33.4683C29.7595 33.4666 29.5961 33.4142 29.4572 33.3174C29.3183 33.2207 29.2101 33.0839 29.146 32.9242C28.9499 32.503 28.8554 32.0393 28.8706 31.5723C28.8529 31.0907 28.9473 30.6117 29.146 30.1754C29.2101 30.0157 29.3183 29.8789 29.4572 29.7822C29.5961 29.6854 29.7595 29.6329 29.9271 29.6313C30.6997 29.6484 31.471 29.5609 32.2215 29.371C32.869 29.1785 33.4664 28.8386 33.9696 28.3763C34.6351 27.7515 35.2223 27.0434 35.7176 26.2685C36.3295 25.353 37.0942 24.1374 38.012 22.6218C38.4574 21.8619 38.9729 21.1481 39.5513 20.4904C40.0851 19.8918 40.7045 19.3808 41.3879 18.9752C42.1371 18.54 42.9407 18.2133 43.7762 18.0041C44.8398 17.7425 45.9232 17.5759 47.0145 17.5061L47.9333 18.075C48.516 20.443 48.9447 22.5347 49.2193 24.35C49.4507 25.7039 49.5887 27.0731 49.6322 28.4472C49.6352 29.0912 49.5344 29.7311 49.334 30.341C49.1487 30.9131 48.8861 31.4555 48.5539 31.952C48.2735 32.381 47.9239 32.7575 47.5204 33.065C47.2032 33.3169 46.8171 33.4593 46.4169 33.4717ZM38.1485 26.7935C38.0873 26.8581 38.0568 26.9054 38.0568 26.9354C38.7011 27.3815 39.3857 27.7625 40.1009 28.0732C40.8817 28.4202 41.6702 28.7278 42.4663 28.9959C43.2501 29.2615 44.0474 29.4831 44.8546 29.6594C45.565 29.8214 46.287 29.9243 47.0134 29.967C47.0134 29.4938 46.9828 28.9178 46.9216 28.2388C46.8605 27.5599 46.7763 26.8337 46.6693 26.0601C46.5615 25.2858 46.4234 24.4806 46.2552 23.6447C46.0869 22.8088 45.9114 21.9951 45.7286 21.2035C44.9187 21.2725 44.1136 21.391 43.3173 21.5584C42.7014 21.6954 42.1166 21.9528 41.5944 22.3165C40.9962 22.7572 40.4693 23.2925 40.0332 23.9027C39.3583 24.8328 38.7296 25.7976 38.1496 26.7935H38.1485Z" fill="#FFFDFC"/>
<path d="M50.198 42.8495C51.5016 42.6949 52.782 42.3772 54.011 41.9031C55.2029 41.4455 56.3366 40.8403 57.3869 40.1006C58.4012 39.3833 59.3196 38.5315 60.1183 37.567C60.9022 36.6235 61.5377 35.5592 62.0018 34.4127C62.0032 34.2782 61.9955 34.1438 61.9789 34.0105C61.9616 33.8768 61.954 33.742 61.9559 33.6072C61.0283 33.9577 60.0761 34.2349 59.1077 34.4363C58.0332 34.6505 56.9407 34.7535 55.8464 34.7439C54.4711 34.8183 53.1051 34.4722 51.9198 33.7491C51.4504 33.4333 51.0697 32.9959 50.8159 32.4807C50.562 31.9654 50.4439 31.3904 50.4733 30.8133C50.4992 30.0706 50.5992 29.3326 50.7716 28.6109C50.9704 27.6804 51.2079 26.6939 51.4839 25.6514C51.76 24.609 52.0513 23.5906 52.3579 22.5962C52.6639 21.6018 52.9395 20.7573 53.185 20.0626L54.1497 19.3517C55.8593 19.408 57.5333 19.8706 59.041 20.7036C60.2945 21.4323 61.3645 22.4545 62.1646 23.6878C62.9707 24.9654 63.539 26.3865 63.8406 27.8786C64.183 29.5128 64.3527 31.1805 64.3464 32.8524C64.3655 34.5915 64.0126 36.3135 63.3129 37.896C62.6815 39.3381 61.8285 40.6657 60.7869 41.8277C59.8853 42.8406 58.8304 43.6962 57.6633 44.3613C56.8056 44.8918 55.8364 45.2009 54.838 45.2625C54.5933 45.2625 54.1035 45.2153 53.3685 45.1206C52.6336 45.026 51.5775 44.8209 50.2002 44.5055L50.198 42.8495ZM56.5828 31.0566C57.5052 31.0587 58.4264 30.9875 59.3382 30.8437C60.2268 30.7018 60.977 30.5516 61.5888 30.3931C61.2964 28.4916 60.5379 26.6985 59.3852 25.1839C58.1563 23.7782 56.4398 22.9283 54.6075 22.8181C54.5157 23.102 54.3701 23.5755 54.1705 24.2387C53.9709 24.9019 53.7717 25.6124 53.5728 26.3702C53.374 27.128 53.1919 27.8542 53.0266 28.5489C52.8612 29.2436 52.7465 29.7487 52.6824 30.0641C53.0795 30.5087 53.6163 30.794 54.1978 30.8696C54.9841 31.0041 55.7804 31.0667 56.5773 31.0566H56.5828Z" fill="white"/>
<path d="M69.4695 30.9169C69.4085 32.5858 69.0346 34.2266 68.3682 35.7487C67.7954 37.0536 67.0538 38.2723 66.1635 39.3718C65.4432 40.2718 64.5812 41.0403 63.6135 41.6451C62.9607 42.0914 62.209 42.36 61.4284 42.4259C61.0035 42.4039 60.5809 42.3485 60.1643 42.2602C59.5678 42.1498 58.7334 41.9685 57.6613 41.7161V40.0578C58.7613 39.8266 59.8219 39.4275 60.8078 38.8738C61.8269 38.3104 62.7689 37.61 63.6091 36.7908C64.4519 35.9696 65.1866 35.0378 65.7942 34.0195C66.3906 33.034 66.8251 31.9537 67.0801 30.8223C66.9883 30.2214 66.8507 29.535 66.6671 28.7629C66.4836 27.9909 66.2618 27.1775 66.0018 26.3228C65.741 25.4711 65.4577 24.6187 65.1518 23.7655C64.8459 22.9123 64.5396 22.1072 64.2329 21.3502L66.6212 19.5984L67.3565 19.8823C67.5699 20.6085 67.7917 21.3427 68.0219 22.0847C68.2521 22.8267 68.4589 23.5214 68.6425 24.1688C68.826 24.8155 68.9943 25.3915 69.1472 25.8969C69.2496 26.2734 69.3884 26.6384 69.5613 26.9863C69.8637 27.27 70.2381 27.4591 70.6407 27.5316C71.3147 27.6598 71.9998 27.7153 72.6849 27.6972V31.5275C71.5807 31.5996 70.4763 31.3899 69.4695 30.9169Z" fill="white"/>
<path d="M72.6794 31.5331C72.5119 31.5315 72.3486 31.4791 72.2098 31.3823C72.0711 31.2855 71.9631 31.1487 71.8993 30.989C71.7023 30.5681 71.6075 30.1042 71.6229 29.6371C71.6049 29.1554 71.6997 28.6762 71.8993 28.2402C71.9631 28.0805 72.0711 27.9437 72.2098 27.8469C72.3486 27.7502 72.5119 27.6977 72.6794 27.6961C74.3335 27.6961 75.8798 27.633 77.3183 27.5068C78.4798 27.4548 79.6196 27.1649 80.6714 26.654C80.6221 26.0415 80.5378 25.4324 80.419 24.8301C80.2813 24.0888 80.1131 23.3002 79.9142 22.4643C79.7154 21.6284 79.4932 20.7839 79.2478 19.9307C79.0254 19.1441 78.7647 18.3695 78.4666 17.61L80.7609 15.8075L81.4951 16.0925C81.7392 16.686 81.9465 17.2948 82.1157 17.9153C82.3145 18.6265 82.4904 19.3686 82.6434 20.1414C82.7964 20.9142 82.9264 21.6957 83.0334 22.4857C83.1347 23.1916 83.1887 23.9037 83.1951 24.6172C83.2226 25.9183 82.9301 27.2054 82.3451 28.3585C81.941 29.2568 81.2744 30.0021 80.4386 30.49C79.5033 30.9283 78.5002 31.193 77.4757 31.2718C75.8835 31.4586 74.2818 31.5459 72.6794 31.5331Z" fill="white"/>
<path d="M84.2591 5.55238C83.5202 5.55738 82.7823 5.49404 82.0543 5.36312C81.4505 5.25415 80.8528 5.11202 80.2637 4.93729L79.2072 7.49456H78.7472L77.3269 6.21594C77.726 5.36276 78.0476 4.66016 78.2916 4.10815C78.5356 3.55613 78.7425 3.12203 78.9122 2.80584C79.0286 2.55413 79.2017 2.33476 79.4169 2.16596C79.6042 2.05079 79.8196 1.99332 80.0375 2.00035C80.5724 2.03623 81.0988 2.15589 81.5987 2.35522C82.6164 2.63667 83.6696 2.75669 84.7223 2.71119C85.6284 2.70576 86.5333 2.64255 87.4318 2.52193C88.4291 2.39193 89.4131 2.16987 90.3718 1.8584L90.6013 2.18961L89.9578 4.65338C88.9973 4.99622 88.0046 5.23411 86.9959 5.36312C86.0882 5.48342 85.1742 5.54662 84.2591 5.55238ZM83.892 37.5219L83.5249 21.5135C83.4928 20.3764 83.4623 19.3738 83.4331 18.5056C83.4082 17.7135 83.3389 16.9236 83.2255 16.1398C83.1267 15.4691 82.9888 14.805 82.8125 14.1514C82.6327 13.5059 82.3942 12.8795 82.1002 12.2802L84.6731 9.81754C85.062 10.5234 85.3777 11.2695 85.6149 12.0436C85.8504 12.8322 86.0193 13.6403 86.1197 14.459C86.2267 15.3121 86.2956 16.2276 86.3262 17.2055C86.3568 18.1834 86.372 19.257 86.372 20.4263V37.0994L84.4896 37.8103L83.892 37.5219Z" fill="white"/>
<path d="M28.595 11.6008H14.1079V16.8574H28.595V11.6008Z" fill="#FFFDFC"/>
<path d="M79.2607 11.6008H64.7736V16.8574H79.2607V11.6008Z" fill="white"/>
<defs>
<linearGradient id="paint0_linear" x1="84.3667" y1="32.8307" x2="153.739" y2="32.8307" gradientUnits="userSpaceOnUse">
<stop offset="0.3409" stop-color="white"/>
<stop offset="0.4003" stop-color="#781656"/>
<stop offset="0.4917" stop-color="#8D1F54"/>
<stop offset="0.6031" stop-color="#B02D53"/>
<stop offset="0.691" stop-color="#D13A51"/>
<stop offset="0.7569" stop-color="#D73E46"/>
<stop offset="0.8739" stop-color="#E94927"/>
<stop offset="1" stop-color="#FF5700"/>
</linearGradient>
<linearGradient id="paint1_linear" x1="161.601" y1="32.7893" x2="91.9934" y2="32.7893" gradientUnits="userSpaceOnUse">
<stop stop-color="#FF5700"/>
</linearGradient>
</defs>
</svg>
