<svg width="581" height="299" viewBox="0 0 581 299" fill="none" xmlns="http://www.w3.org/2000/svg">
<path d="M347.4 118.981C347.445 132.349 350.37 145.694 355.975 157.689C361.559 169.706 369.802 180.329 379.751 188.584C389.655 196.861 401.31 202.66 413.253 205.669C425.219 208.724 437.428 208.967 448.839 206.931C460.272 204.828 470.753 200.513 479.749 194.67C488.79 188.85 496.345 181.48 502.372 173.402C514.47 157.091 520.32 138.125 520.342 118.981C520.254 99.8378 514.315 80.9378 502.261 64.6713C496.235 56.5934 488.679 49.268 479.683 43.4475C470.687 37.6269 460.25 33.2892 448.839 31.1867C437.45 29.1285 425.241 29.3499 413.298 32.3818C401.355 35.3917 389.7 41.1458 379.795 49.4229C369.846 57.6557 361.604 68.2787 355.998 80.2738C350.37 92.269 347.445 105.614 347.4 118.981ZM347.4 118.981C347.378 92.269 356.419 65.5123 373.945 43.713C382.698 32.8466 393.555 23.2195 406.274 15.8277C418.948 8.41369 433.484 3.25713 448.861 1.17679C464.194 -0.881415 480.502 0.158751 496.146 4.76205C511.789 9.32108 526.746 17.399 539.376 28.4646C552.05 39.486 562.442 53.4286 569.488 69.0312C576.557 84.6337 580.191 101.874 580.213 118.981C580.191 136.089 576.49 153.329 569.4 168.909C562.331 184.512 551.939 198.41 539.265 209.41C526.635 220.453 511.701 228.487 496.079 233.068C480.458 237.671 464.194 238.711 448.861 236.653C433.528 234.573 418.992 229.438 406.318 222.047C393.622 214.677 382.742 205.072 373.99 194.205C356.419 172.45 347.378 145.672 347.4 118.981Z" fill="url(#paint0_linear)"/>
<path d="M580.166 118.827C580.189 145.672 570.949 172.562 553.223 194.272C544.359 205.094 533.413 214.633 520.695 221.981C507.998 229.328 493.485 234.418 478.174 236.499C462.885 238.557 446.666 237.539 431.044 233.024C415.445 228.509 400.467 220.586 387.748 209.587C375.007 198.632 364.482 184.734 357.348 169.065C350.168 153.418 346.402 136.067 346.379 118.827C346.402 101.587 350.102 84.2137 357.259 68.5669C364.394 52.8759 374.896 38.9553 387.637 27.9782C400.356 16.979 415.357 8.98962 430.978 4.49698C446.621 -0.0399199 462.863 -1.03583 478.174 1.02237C493.507 3.12484 508.043 8.23715 520.739 15.6069C533.48 22.9544 544.426 32.5373 553.267 43.3594C570.971 65.0923 580.211 91.9818 580.166 118.827ZM580.166 118.827C580.122 105.393 577.153 91.9818 571.481 79.9645C565.83 67.9251 557.499 57.3021 547.484 49.1135C537.49 40.8807 525.791 35.1709 513.826 32.2053C501.839 29.2176 489.607 28.9963 478.174 31.0545C466.718 33.1569 456.194 37.4725 447.131 43.293C438.046 49.1136 430.402 56.4169 424.286 64.4948C412.055 80.7612 406.006 99.6834 405.94 118.849C405.962 138.015 411.922 157.003 424.175 173.314C430.313 181.392 437.958 188.74 447.064 194.56C456.149 200.403 466.696 204.696 478.174 206.799C489.63 208.835 501.883 208.613 513.87 205.604C525.835 202.616 537.535 196.884 547.528 188.629C557.543 180.418 565.852 169.773 571.503 157.734C577.175 145.672 580.144 132.261 580.166 118.827Z" fill="url(#paint1_linear)"/>
<path d="M462.775 88.5505C457.013 97.1817 451.895 104.795 446.799 112.43C445.779 113.957 444.76 115.506 443.896 117.122C438.911 126.55 440.949 137.195 449.015 143.923C456.991 150.584 468.336 150.606 476.335 143.989C484.334 137.35 486.816 126.417 481.453 117.255C475.892 107.76 469.488 98.7751 462.775 88.5505Z" fill="#E6462C"/>
<path d="M461.224 140.205C460.692 139.962 460.581 139.541 460.647 139.01C460.98 136.155 461.312 133.278 461.644 130.423C461.733 129.67 461.822 128.918 461.91 128.166C461.91 128.099 461.91 128.033 461.91 127.944C461.8 127.944 461.689 127.944 461.578 127.944C459.695 127.944 457.811 127.944 455.928 127.944C455.329 127.944 454.997 127.612 455.064 127.103C455.086 126.97 455.152 126.838 455.197 126.727C457.878 121.438 460.581 116.17 463.262 110.881C463.528 110.372 463.927 110.173 464.37 110.372C464.702 110.527 464.857 110.77 464.835 111.147C464.769 111.788 464.702 112.43 464.636 113.072C464.414 115.086 464.171 117.122 463.949 119.136C463.838 120.11 463.727 121.061 463.617 122.079C463.75 122.079 463.86 122.079 463.971 122.079C465.766 122.079 467.561 122.079 469.356 122.079C470.242 122.079 470.619 122.699 470.242 123.496C467.561 128.874 464.88 134.252 462.198 139.63C462.088 139.873 461.822 140.05 461.622 140.249C461.512 140.205 461.379 140.205 461.224 140.205Z" fill="white"/>
<path d="M10.8492 222.004L13.0492 214.359H14.6442L16.8332 222.004H16.1622L15.5462 219.892H12.1362L11.5312 222.004H10.8492ZM13.5442 214.953L12.3012 219.287H15.3812L14.1382 214.953H13.5442ZM16.7114 214.975V214.359H22.2114V214.975H19.8134V222.004H19.1314V214.975H16.7114ZM23.9974 218.99V222.004H23.3154V214.359H26.1204C26.9197 214.359 27.5137 214.543 27.9024 214.909C28.2984 215.269 28.4964 215.841 28.4964 216.625C28.4964 217.85 28.0051 218.594 27.0224 218.858L28.5954 222.004H27.8364L26.3294 218.99H23.9974ZM27.7924 216.636C27.7924 216.064 27.6567 215.643 27.3854 215.371C27.1141 215.1 26.6924 214.964 26.1204 214.964H23.9974V218.385H26.1204C27.2351 218.385 27.7924 217.802 27.7924 216.636ZM30.49 218.22C30.49 219.386 30.644 220.226 30.952 220.739C31.26 221.245 31.865 221.498 32.767 221.498C33.6763 221.498 34.285 221.249 34.593 220.75C34.901 220.252 35.055 219.419 35.055 218.253C35.055 217.08 34.8936 216.222 34.571 215.679C34.2483 215.137 33.647 214.865 32.767 214.865C31.8576 214.865 31.2453 215.159 30.93 215.745C30.7613 216.046 30.644 216.391 30.578 216.779C30.5193 217.168 30.49 217.648 30.49 218.22ZM35.759 218.242C35.759 219.606 35.5426 220.593 35.11 221.201C34.6846 221.81 33.9036 222.114 32.767 222.114C31.6376 222.114 30.8566 221.803 30.424 221.179C29.9986 220.556 29.786 219.573 29.786 218.231C29.786 216.882 30.0023 215.881 30.435 215.228C30.8676 214.576 31.645 214.249 32.767 214.249C33.889 214.249 34.6663 214.576 35.099 215.228C35.539 215.874 35.759 216.878 35.759 218.242Z" fill="#A72953"/>
<path d="M37.2232 222.004V214.524H39.8082L41.1282 219.98L42.4482 214.524H45.0332V222.004H43.5152V216.218H43.3502L41.8872 221.674H40.3692L38.9062 216.218H38.7412V222.004H37.2232ZM46.6656 222.004V214.524H51.5056V215.844H48.1836V217.593H50.8456V218.891H48.1836V220.684H51.5056V222.004H46.6656ZM52.0854 215.866V214.524H57.5854V215.866H55.6054V222.004H54.0874V215.866H52.0854ZM58.5464 222.004V214.524H63.3864V215.844H60.0644V217.593H62.7264V218.891H60.0644V220.684H63.3864V222.004H58.5464ZM66.1552 219.496V222.004H64.6372V214.524H67.5412C69.3012 214.524 70.1812 215.346 70.1812 216.988C70.1812 217.964 69.8146 218.682 69.0812 219.144L70.1482 222.004H68.4872L67.6182 219.496H66.1552ZM67.5632 218.198C67.9226 218.198 68.1902 218.088 68.3662 217.868C68.5422 217.648 68.6302 217.359 68.6302 216.999C68.6302 216.64 68.5349 216.354 68.3442 216.141C68.1609 215.929 67.8932 215.822 67.5412 215.822H66.1552V218.198H67.5632Z" fill="#FF5700"/>
<path d="M46.8086 158.98C46.5765 165.102 45.1589 171.121 42.6341 176.704C40.4683 181.491 37.6595 185.962 34.2853 189.993C31.5603 193.295 28.2971 196.114 24.6331 198.332C22.1611 199.969 19.3147 200.956 16.3586 201.2C14.6945 201.126 13.0366 200.951 11.3939 200.675C9.01916 200.328 5.22119 199.576 0 198.419V192.336C9.13809 190.739 17.6223 186.547 24.4386 180.262C27.6875 177.261 30.5241 173.845 32.8744 170.1C35.1151 166.571 36.7602 162.699 37.744 158.637C37.3964 156.433 36.8751 153.914 36.1801 151.079C35.485 148.245 34.6438 145.263 33.6564 142.133C32.6717 139.006 31.5988 135.878 30.4376 132.749C29.2764 129.619 28.1167 126.667 26.9582 123.893L36.0063 117.48L38.7865 118.521C39.5974 121.185 40.4387 123.878 41.3103 126.6C42.1818 129.322 42.9651 131.87 43.6602 134.245C44.3552 136.622 44.9924 138.735 45.5716 140.583C45.9595 141.964 46.4834 143.302 47.1355 144.579C48.2807 145.619 49.6983 146.313 51.2231 146.579C53.7752 147.049 56.3695 147.253 58.9638 147.187V161.257C54.7863 161.507 50.6115 160.725 46.8086 158.98Z" fill="#FF5700"/>
<path d="M95.8596 165.671L96.9021 172.617L57.9418 188.08L56.895 181.13L95.8596 165.671Z" fill="#FF5700"/>
<path d="M111.337 161.241C109.419 161.237 107.503 161.121 105.599 160.894C103.644 160.667 101.736 160.141 99.9429 159.332C98.0601 158.459 96.3514 157.252 94.8997 155.77C93.1738 153.946 91.8416 151.787 90.9859 149.427C89.6923 152.529 87.5909 155.228 84.8999 157.245C80.8399 159.909 72.2014 161.241 58.9843 161.241C58.3496 161.235 57.7307 161.042 57.2047 160.688C56.6787 160.333 56.2689 159.831 56.0262 159.245C55.2837 157.7 54.926 155.999 54.9836 154.286C54.9163 152.52 55.2739 150.763 56.0262 149.163C56.2689 148.577 56.6787 148.075 57.2047 147.72C57.7307 147.365 58.3496 147.173 58.9843 147.167C67.4199 147.673 75.8815 146.792 84.0312 144.559L88.7269 118.328H98.1184C97.8868 121.454 97.7419 124.031 97.684 126.059C97.6261 128.087 97.5682 129.708 97.5103 130.923C97.4523 132.138 97.4234 133.038 97.4234 133.617V135.179C97.2248 136.981 97.5156 138.802 98.2655 140.453C99.0153 142.104 100.196 143.522 101.685 144.559C104.593 146.317 107.938 147.221 111.337 147.167V161.241Z" fill="#FF5700"/>
<path d="M175.016 171.493L176.059 178.439L137.099 193.902L136.056 186.952L175.016 171.493Z" fill="#FF5700"/>
<path d="M173.777 161.241C170.455 161.185 167.153 160.719 163.947 159.852C160.257 158.913 156.628 157.753 153.078 156.377C149.492 155 146.1 153.523 142.9 151.947C140.211 150.672 137.624 149.191 135.164 147.517C133.3 150.023 131.234 152.373 128.987 154.542C127.297 156.175 125.396 157.576 123.336 158.708C121.539 159.674 119.601 160.349 117.593 160.708C115.526 161.063 113.431 161.237 111.333 161.228C110.699 161.222 110.08 161.03 109.554 160.675C109.028 160.32 108.618 159.818 108.375 159.232C107.633 157.688 107.275 155.986 107.333 154.274C107.265 152.507 107.623 150.75 108.375 149.15C108.618 148.564 109.028 148.062 109.554 147.707C110.08 147.352 110.699 147.16 111.333 147.154C114.259 147.217 117.18 146.896 120.022 146.199C122.474 145.493 124.736 144.246 126.641 142.55C129.161 140.259 131.385 137.661 133.261 134.819C135.578 131.461 138.474 127.002 141.949 121.443C143.636 118.655 145.588 116.037 147.778 113.625C149.8 111.429 152.145 109.555 154.733 108.067C157.57 106.471 160.613 105.272 163.777 104.505C167.804 103.545 171.907 102.934 176.04 102.678L179.519 104.765C181.726 113.451 183.349 121.123 184.389 127.782C185.265 132.748 185.788 137.77 185.952 142.811C185.964 145.173 185.582 147.52 184.823 149.757C184.121 151.856 183.127 153.845 181.869 155.666C180.807 157.24 179.483 158.621 177.955 159.749C176.754 160.673 175.292 161.195 173.777 161.241ZM142.466 136.745C142.234 136.982 142.119 137.155 142.119 137.265C144.559 138.901 147.151 140.299 149.859 141.439C152.816 142.712 155.802 143.84 158.816 144.823C161.785 145.798 164.804 146.61 167.86 147.257C170.551 147.851 173.285 148.229 176.036 148.385C176.036 146.65 175.92 144.537 175.688 142.046C175.456 139.556 175.138 136.892 174.732 134.055C174.324 131.214 173.801 128.261 173.164 125.195C172.527 122.129 171.862 119.144 171.17 116.24C168.103 116.493 165.054 116.928 162.039 117.542C159.707 118.045 157.492 118.989 155.515 120.323C153.25 121.939 151.254 123.903 149.603 126.141C147.047 129.553 144.667 133.092 142.47 136.745H142.466Z" fill="#FF5700"/>
<path d="M188.095 195.638C193.032 195.072 197.88 193.906 202.534 192.167C207.048 190.489 211.341 188.269 215.318 185.556C219.159 182.924 222.637 179.8 225.661 176.262C228.63 172.801 231.036 168.897 232.794 164.692C232.799 164.199 232.77 163.706 232.707 163.217C232.642 162.726 232.613 162.232 232.62 161.737C229.107 163.023 225.502 164.04 221.834 164.779C217.766 165.564 213.629 165.942 209.485 165.907C204.277 166.18 199.104 164.91 194.615 162.258C192.838 161.1 191.396 159.495 190.435 157.605C189.474 155.715 189.026 153.606 189.138 151.489C189.236 148.765 189.614 146.058 190.267 143.411C191.02 139.998 191.919 136.379 192.965 132.555C194.01 128.732 195.113 124.996 196.274 121.349C197.433 117.701 198.477 114.603 199.406 112.055L203.06 109.448C209.534 109.654 215.872 111.351 221.582 114.406C226.329 117.08 230.38 120.829 233.41 125.353C236.463 130.039 238.615 135.252 239.757 140.725C241.054 146.719 241.696 152.836 241.672 158.969C241.745 165.348 240.408 171.664 237.758 177.469C235.367 182.759 232.138 187.628 228.193 191.89C224.779 195.606 220.784 198.744 216.365 201.184C213.117 203.13 209.447 204.264 205.666 204.49C204.739 204.49 202.884 204.316 200.101 203.969C197.318 203.622 193.319 202.87 188.103 201.713L188.095 195.638ZM212.273 152.382C215.766 152.389 219.254 152.128 222.707 151.601C226.072 151.08 228.913 150.529 231.23 149.948C230.122 142.973 227.25 136.396 222.885 130.84C218.231 125.684 211.732 122.567 204.793 122.163C204.446 123.204 203.894 124.941 203.138 127.373C202.382 129.806 201.628 132.412 200.875 135.192C200.122 137.971 199.433 140.635 198.806 143.183C198.18 145.732 197.746 147.584 197.503 148.741C199.007 150.372 201.04 151.419 203.242 151.696C206.219 152.189 209.234 152.419 212.252 152.382H212.273Z" fill="#A72953"/>
<path d="M261.071 151.869C260.84 157.991 259.424 164.009 256.901 169.593C254.732 174.379 251.923 178.849 248.552 182.882C245.825 186.183 242.56 189.002 238.896 191.221C236.424 192.858 233.577 193.843 230.621 194.085C229.012 194.004 227.412 193.801 225.834 193.477C223.575 193.072 220.416 192.407 216.356 191.481V185.399C220.522 184.55 224.538 183.087 228.271 181.056C232.13 178.989 235.697 176.42 238.879 173.415C242.071 170.403 244.853 166.985 247.154 163.25C249.412 159.635 251.057 155.672 252.023 151.522C251.676 149.318 251.154 146.8 250.459 143.968C249.764 141.136 248.924 138.153 247.94 135.018C246.952 131.894 245.879 128.767 244.721 125.638C243.563 122.508 242.403 119.555 241.241 116.778L250.286 110.353L253.07 111.394C253.878 114.058 254.718 116.751 255.589 119.472C256.461 122.194 257.244 124.742 257.939 127.117C258.634 129.489 259.272 131.602 259.851 133.456C260.239 134.837 260.764 136.176 261.419 137.452C262.564 138.492 263.982 139.186 265.506 139.452C268.059 139.922 270.653 140.126 273.247 140.059V154.109C269.066 154.373 264.884 153.604 261.071 151.869Z" fill="#A72953"/>
<path d="M273.226 154.13C272.591 154.124 271.973 153.932 271.448 153.577C270.922 153.222 270.513 152.72 270.272 152.134C269.526 150.59 269.167 148.889 269.225 147.175C269.157 145.408 269.516 143.651 270.272 142.051C270.513 141.466 270.922 140.964 271.448 140.609C271.973 140.254 272.591 140.061 273.226 140.056C279.489 140.056 285.345 139.824 290.792 139.361C295.191 139.171 299.507 138.107 303.49 136.233C303.303 133.986 302.984 131.752 302.534 129.543C302.013 126.824 301.375 123.931 300.622 120.865C299.869 117.799 299.028 114.701 298.099 111.572C297.257 108.686 296.27 105.845 295.141 103.059L303.829 96.4478L306.609 97.4933C307.533 99.67 308.318 101.903 308.959 104.179C309.712 106.788 310.378 109.51 310.957 112.345C311.537 115.179 312.029 118.046 312.434 120.944C312.818 123.533 313.022 126.145 313.047 128.762C313.15 133.535 312.043 138.256 309.828 142.485C308.298 145.78 305.773 148.514 302.608 150.304C299.066 151.912 295.268 152.882 291.388 153.171C285.359 153.857 279.294 154.177 273.226 154.13Z" fill="#A72953"/>
<path d="M317.076 58.8311C314.278 58.8495 311.484 58.6171 308.727 58.1369C306.44 57.7372 304.177 57.2158 301.946 56.5749L297.945 65.9551H296.204L290.825 61.2651C292.337 58.1356 293.554 55.5584 294.478 53.5336C295.402 51.5088 296.186 49.9165 296.828 48.7567C297.269 47.8334 297.924 47.0287 298.74 46.4096C299.449 45.9871 300.264 45.7763 301.09 45.8021C303.115 45.9337 305.109 46.3727 307.002 47.1038C310.855 48.1362 314.844 48.5764 318.83 48.4095C322.261 48.3896 325.688 48.1577 329.09 47.7153C332.867 47.2385 336.593 46.4239 340.224 45.2814L341.092 46.4963L338.656 55.5335C335.018 56.7911 331.259 57.6637 327.44 58.1369C324.002 58.5782 320.541 58.81 317.076 58.8311ZM315.686 176.096L314.296 117.377C314.174 113.206 314.058 109.529 313.948 106.344C313.854 103.439 313.591 100.541 313.162 97.6662C312.788 95.2059 312.265 92.7703 311.598 90.3727C310.917 88.0051 310.014 85.7071 308.901 83.5091L318.644 74.4759C320.116 77.065 321.312 79.8018 322.21 82.6412C323.102 85.5338 323.741 88.4981 324.122 91.5008C324.527 94.6303 324.788 97.9884 324.903 101.575C325.019 105.162 325.077 109.1 325.077 113.389V174.547L317.949 177.154L315.686 176.096Z" fill="#A72953"/>
<path d="M106.289 81.0167H51.4292V100.298H106.289V81.0167Z" fill="#FF5700"/>
<path d="M298.149 81.0167H243.29V100.298H298.149V81.0167Z" fill="#A72953"/>
<defs>
<linearGradient id="paint0_linear" x1="317.484" y1="118.888" x2="580.182" y2="118.888" gradientUnits="userSpaceOnUse">
<stop offset="0.3409" stop-color="#701356"/>
<stop offset="0.4003" stop-color="#781656"/>
<stop offset="0.4917" stop-color="#8D1F54"/>
<stop offset="0.6031" stop-color="#B02D53"/>
<stop offset="0.691" stop-color="#D13A51"/>
<stop offset="0.7569" stop-color="#D73E46"/>
<stop offset="0.8739" stop-color="#E94927"/>
<stop offset="1" stop-color="#FF5700"/>
</linearGradient>
<linearGradient id="paint1_linear" x1="609.956" y1="118.737" x2="346.365" y2="118.737" gradientUnits="userSpaceOnUse">
<stop offset="0.3409" stop-color="#711356"/>
<stop offset="0.4007" stop-color="#791656"/>
<stop offset="0.4928" stop-color="#8E1F54"/>
<stop offset="0.6051" stop-color="#B12D53"/>
<stop offset="0.691" stop-color="#D13A51"/>
<stop offset="0.7569" stop-color="#D73E46"/>
<stop offset="0.8739" stop-color="#E94927"/>
<stop offset="1" stop-color="#FF5700"/>
</linearGradient>
</defs>
</svg>
