<svg width="209" height="49" viewBox="0 0 209 49" fill="none" xmlns="http://www.w3.org/2000/svg">
<g clip-path="url(#clip0)">
<path d="M132.981 28.2321C131.022 24.935 127.997 22.4048 124.406 21.059C120.814 19.7133 116.871 19.6324 113.228 20.8299C114.25 17.5304 120.581 15.1049 124.934 16.3408C130.285 17.8648 134.108 23.4392 132.981 28.2321Z" fill="url(#paint0_linear)"/>
<path d="M130.055 34.5383C129.431 32.7158 128.407 31.0562 127.058 29.6811C125.709 28.306 124.07 27.2504 122.259 26.5917C120.49 25.871 118.579 25.565 116.673 25.6972C114.766 25.8294 112.916 26.3963 111.262 27.3544C110.868 25.6797 111.137 24.9823 112.415 24.2908C119.038 20.6911 128.232 23.9789 131.113 30.9777C131.824 32.6999 131.677 33.2182 130.055 34.5383Z" fill="url(#paint1_linear)"/>
<path d="M124.993 37.6801C124.76 36.3968 124.2 35.1955 123.366 34.1926C122.533 33.1896 121.454 32.419 120.235 31.9554C119.016 31.4919 117.698 31.3511 116.409 31.5468C115.119 31.7425 113.902 32.2679 112.875 33.0723C112.496 32.3872 112.158 31.6799 111.864 30.954C111.79 30.7488 112.064 30.2993 112.3 30.1238C113.306 29.3885 114.46 28.8815 115.682 28.6379C116.904 28.3944 118.164 28.4202 119.375 28.7136C121.118 28.9836 122.759 29.7104 124.13 30.8202C125.501 31.9299 126.554 33.383 127.182 35.0316C127.781 36.5877 127.686 36.7158 126.114 37.3254C125.749 37.4689 125.37 37.5627 124.993 37.6801Z" fill="url(#paint2_linear)"/>
<path d="M122.041 38.0477C119.396 38.0175 116.85 37.0375 114.867 35.2866C115.447 34.7707 116.162 34.4312 116.929 34.3081C117.695 34.1849 118.481 34.2833 119.194 34.5916C119.949 34.8359 120.618 35.2912 121.122 35.9036C121.627 36.516 121.946 37.26 122.041 38.0477Z" fill="url(#paint3_linear)"/>
<path d="M61.8862 16.0952H65.1644L72.9449 37.5318H69.7639L67.5247 31.1118H59.1156L56.7897 37.5318H53.814L61.8862 16.0952ZM66.7015 28.748L63.4019 19.2762L59.9707 28.748H66.7015Z" fill="#3210BC"/>
<path d="M88.9459 16.0952V18.6488H81.7217V37.5318H78.7886V18.6488H71.5656V16.0952H88.9459Z" fill="#3210BC"/>
<path d="M91.9656 16.0952H101.71C103.069 16.0476 104.422 16.2902 105.68 16.8069C106.638 17.2397 107.437 17.9594 107.969 18.8664C108.5 19.7734 108.736 20.823 108.645 21.8701C108.715 22.9287 108.464 23.9838 107.925 24.8976C107.386 25.8114 106.584 26.5415 105.624 26.9926C106.363 27.2628 107.015 27.7265 107.513 28.3352C108.012 29.1451 108.26 30.0843 108.225 31.0347L108.327 33.9097C108.333 34.5231 108.401 35.1343 108.531 35.7338C108.574 36.0104 108.68 36.2732 108.842 36.5012C109.005 36.7292 109.218 36.9161 109.466 37.0467V37.5283H105.908C105.795 37.3037 105.715 37.064 105.67 36.8166C105.586 36.2561 105.538 35.6908 105.524 35.1242L105.349 31.5494C105.385 30.985 105.262 30.4217 104.994 29.9238C104.726 29.4258 104.323 29.0131 103.832 28.7325C103.024 28.4234 102.159 28.2892 101.295 28.3388H94.8714V37.5318H91.9667L91.9656 16.0952ZM101.398 25.9157C102.505 25.9755 103.603 25.6904 104.541 25.0997C104.961 24.7406 105.286 24.2839 105.488 23.7698C105.689 23.2557 105.762 22.6999 105.699 22.1512C105.766 21.5293 105.648 20.9015 105.36 20.3462C105.072 19.7908 104.628 19.3324 104.081 19.0283C103.354 18.7062 102.562 18.5565 101.767 18.5907H94.8702V25.9157H101.398Z" fill="#3210BC"/>
<path d="M151.607 17.6561C153.005 18.9195 153.884 20.6564 154.074 22.5307H151.239C151.019 21.1788 150.291 19.9617 149.206 19.1267C148.12 18.2918 146.757 17.9016 145.393 18.0356C144.442 18.0034 143.496 18.1871 142.625 18.5728C141.755 18.9586 140.983 19.5364 140.368 20.263C139.093 21.7479 138.455 24.0239 138.455 27.091C138.355 29.2619 138.962 31.4066 140.183 33.204C140.782 33.9891 141.566 34.6139 142.466 35.0228C143.365 35.4317 144.351 35.6119 145.336 35.5476C146.283 35.5924 147.224 35.3884 148.067 34.9557C148.91 34.523 149.625 33.8769 150.14 33.0818C150.791 32.0382 151.235 30.8782 151.445 29.666H154.276C154.089 31.7778 153.218 33.7709 151.794 35.3424C150.926 36.2669 149.868 36.9922 148.692 37.4685C147.517 37.9447 146.252 38.1606 144.985 38.1011C142.704 38.1678 140.485 37.3579 138.782 35.8381C136.58 33.8424 135.479 30.7611 135.479 26.5941C135.362 23.7885 136.24 21.0317 137.959 18.8113C138.85 17.722 139.983 16.8562 141.267 16.2832C142.552 15.7103 143.954 15.446 145.359 15.5117C146.49 15.4408 147.624 15.5938 148.697 15.9617C149.769 16.3297 150.758 16.9054 151.607 17.6561Z" fill="#3210BC"/>
<path d="M158.306 16.0952H173.862V18.7223H161.137V25.2301H172.899V27.709H161.137V34.9759H174.08V37.5294H158.306V16.0952Z" fill="#3210BC"/>
<path d="M177.962 16.0952H180.866V34.9782H191.621V37.5318H177.962V16.0952Z" fill="#3210BC"/>
<path d="M194.583 16.0952H197.488V34.9782H208.243V37.5318H194.583V16.0952Z" fill="#3210BC"/>
</g>
<g clip-path="url(#clip1)">
<path d="M25.5571 30.9514C29.1205 30.9514 32.0092 28.0538 32.0092 24.4794C32.0092 20.9051 29.1205 18.0075 25.5571 18.0075C21.9937 18.0075 19.105 20.9051 19.105 24.4794C19.105 28.0538 21.9937 30.9514 25.5571 30.9514Z" fill="url(#paint4_linear)"/>
<path d="M21.0748 34.5674C18.7447 33.1385 13.5277 29.5102 13.4986 24.4759C13.4813 21.5015 14.6418 18.6418 16.7253 16.5253C18.8088 14.4087 21.6448 13.2084 24.6101 13.188C27.5762 13.1707 30.4278 14.3354 32.538 16.4263C34.6482 18.5171 35.8443 21.3629 35.8634 24.3381C35.872 25.7856 35.6004 27.221 35.0635 28.5646L48.5721 28.4816C48.8088 27.0863 48.9243 25.673 48.9175 24.2577C48.8781 17.81 46.287 11.6421 41.7142 7.11061C37.1414 2.5791 30.9614 0.0551585 24.5335 0.0939464C21.3503 0.113498 18.2021 0.761774 15.2687 2.00176C12.3353 3.24175 9.67405 5.04916 7.43702 7.3208C5.19999 9.59244 3.43093 12.2838 2.23087 15.2413C1.0308 18.1987 0.423231 21.3643 0.442843 24.5572C0.481951 30.8063 2.91823 36.8004 7.24612 41.2956C11.574 45.7908 17.4612 48.4419 23.686 48.6989H23.7459C24.1062 48.713 24.4674 48.7219 24.8312 48.7201C25.1951 48.7183 25.5651 48.7042 25.9298 48.6856L49.0699 48.5425L49.0478 34.6168L46.4314 34.6328L29.2968 34.7388L21.0748 34.5674Z" fill="url(#paint5_linear)"/>
<path d="M44.629 34.7193L44.6836 43.677L26.3438 43.7901C26.1007 43.8033 25.8153 43.8139 25.5193 43.8157C25.2233 43.8175 24.9458 43.8104 24.6621 43.7998C19.7299 43.6149 15.0596 41.526 11.6262 37.9694C8.19275 34.4129 6.26164 29.6634 6.23601 24.7127C6.21068 19.6159 8.20192 14.7171 11.7729 11.0911C15.3439 7.46513 20.2029 5.40803 25.284 5.37111C30.3651 5.34571 35.2487 7.34295 38.8636 10.9247C42.4785 14.5064 44.5294 19.3802 44.5664 24.4768C44.5715 25.5954 44.4801 26.7124 44.2933 27.8152L44.1392 28.5301H46.5882C46.841 27.2796 46.9857 26.0094 47.0208 24.7339C46.9856 19.0025 44.682 13.5198 40.6168 9.49202C36.5517 5.46423 31.0578 3.22125 25.344 3.25651C19.6301 3.29179 14.1643 5.60228 10.1487 9.67973C6.13315 13.7572 3.89674 19.2677 3.93143 24.999C3.9657 30.5536 6.13096 35.8818 9.97781 39.8775C13.8247 43.8732 19.0577 46.2297 24.5907 46.4579H24.6445C24.9643 46.4702 25.2849 46.4782 25.6082 46.4764C25.9315 46.4746 26.261 46.4623 26.5852 46.4455L47.1538 46.3191L47.093 34.6124L44.6325 34.6362L44.629 34.7193Z" fill="#3210BE"/>
<path d="M25.3527 7.22947C20.7937 7.26311 16.4341 9.10914 13.2302 12.3627C10.0263 15.6162 8.23966 20.0115 8.26217 24.5846C8.28212 29.0201 10.0079 33.2768 13.0797 36.4674C16.1516 39.6579 20.3325 41.5363 24.751 41.7108C25.3518 41.7329 25.8302 41.7294 26.3429 41.702L42.7595 41.6004L42.7173 34.6194L25.5941 34.7255C24.2886 34.7335 22.9942 34.4835 21.785 33.9898C20.5757 33.496 19.4753 32.7682 18.5465 31.8479C17.6177 30.9275 16.8787 29.8327 16.3717 28.6259C15.8647 27.4191 15.5997 26.1239 15.5917 24.8143C15.5835 23.5046 15.8325 22.2061 16.3247 20.993C16.8168 19.7798 17.5423 18.6758 18.4599 17.7439C19.3774 16.8121 20.469 16.0707 21.6722 15.562C22.8755 15.0534 24.1668 14.7875 25.4725 14.7795C26.778 14.7713 28.0724 15.0212 29.2816 15.5148C30.4908 16.0085 31.5913 16.7362 32.5201 17.6565C33.4489 18.5768 34.1879 19.6715 34.6949 20.8783C35.2019 22.0851 35.467 23.3802 35.4749 24.6897C35.4177 26.0002 35.2752 27.3055 35.0485 28.5973L42.3367 28.5407C42.4248 27.8091 42.6582 25.0945 42.6538 24.3725C42.621 19.7994 40.781 15.4262 37.5374 12.2123C34.2939 8.99842 29.9119 7.20641 25.3527 7.22947Z" fill="#3210BE"/>
</g>
<defs>
<linearGradient id="paint0_linear" x1="113.228" y1="22.1225" x2="133.179" y2="22.1225" gradientUnits="userSpaceOnUse">
<stop stop-color="#00D896"/>
<stop offset="1" stop-color="#2582C0"/>
</linearGradient>
<linearGradient id="paint1_linear" x1="111.094" y1="28.6778" x2="131.519" y2="28.6778" gradientUnits="userSpaceOnUse">
<stop stop-color="#00D896"/>
<stop offset="1" stop-color="#2582C0"/>
</linearGradient>
<linearGradient id="paint2_linear" x1="111.852" y1="33.0763" x2="127.522" y2="33.0763" gradientUnits="userSpaceOnUse">
<stop stop-color="#00D896"/>
<stop offset="1" stop-color="#2582C0"/>
</linearGradient>
<linearGradient id="paint3_linear" x1="114.867" y1="36.1521" x2="122.041" y2="36.1521" gradientUnits="userSpaceOnUse">
<stop stop-color="#00D896"/>
<stop offset="1" stop-color="#2582C0"/>
</linearGradient>
<linearGradient id="paint4_linear" x1="19.0663" y1="28.5956" x2="31.9705" y2="28.5956" gradientUnits="userSpaceOnUse">
<stop stop-color="#00DA98"/>
<stop offset="1" stop-color="#2584C2"/>
</linearGradient>
<linearGradient id="paint5_linear" x1="0.393755" y1="28.5402" x2="48.924" y2="28.5402" gradientUnits="userSpaceOnUse">
<stop stop-color="#00DA98"/>
<stop offset="1" stop-color="#2584C2"/>
</linearGradient>
<clipPath id="clip0">
<rect width="154.429" height="22.5894" fill="white" transform="translate(53.814 15.5117)"/>
</clipPath>
<clipPath id="clip1">
<rect width="48.6279" height="48.6279" fill="white" transform="translate(0.441895 0.0930176)"/>
</clipPath>
</defs>
</svg>
