<svg width="56" height="110" viewBox="0 0 56 110" fill="none" xmlns="http://www.w3.org/2000/svg">
<path d="M-58 37.2002C-57.4565 36.3127 -56.6455 36.0864 -55.6392 36.087C-24.3997 36.1027 6.83964 36.1073 38.0789 36.1007C39.968 36.1007 40.4486 36.5798 40.4555 38.4581C40.4612 40.0513 40.4773 41.6438 40.446 43.2373C40.4236 44.3752 39.8479 44.9972 38.8932 45.0237C37.8884 45.0511 37.2685 44.4056 37.2402 43.2263C37.2104 42.0095 37.2337 40.7914 37.2337 39.4811H-54.6505V81.7271H-53.2319C-33.0859 81.7271 -12.9399 81.7287 7.20606 81.7318C7.72363 81.7209 8.24103 81.7608 8.75079 81.8509C9.10593 81.9038 9.42784 82.089 9.65176 82.3693C9.87569 82.6495 9.98501 83.0041 9.95772 83.3616C9.97983 83.7376 9.86034 84.1082 9.62273 84.4007C9.38512 84.6932 9.04655 84.8863 8.67358 84.9422C8.34444 84.9978 8.01006 85.0159 7.67684 84.9961C-13.434 84.9983 -34.5447 85.0038 -55.6553 85.0125C-56.669 85.0125 -57.4741 84.7904 -58 83.8829V37.2002Z" fill="#5E116C"/>
<path d="M14.1032 79.5476C14.1032 72.3268 14.1802 65.1045 14.0627 57.8858C14.0198 55.2601 15.1638 53.6095 17.3293 52.4546C19.8406 51.1149 22.5565 50.3872 25.3466 49.9507C33.1183 48.7345 40.8658 48.7631 48.4997 50.8237C50.3381 51.3751 52.1008 52.1526 53.7472 53.1382C55.3274 54.0314 56.0048 55.5445 56.0006 57.4335C55.9688 72.2082 55.9682 86.9832 55.9988 101.758C56.0338 102.593 55.8508 103.423 55.4678 104.166C55.0847 104.909 54.5148 105.54 53.814 105.997C51.0668 107.906 47.8944 108.669 44.669 109.199C37.9263 110.33 31.0367 110.263 24.3171 109.003C21.5481 108.481 18.8311 107.739 16.4458 106.131C15.6868 105.664 15.0671 105.002 14.6513 104.215C14.2355 103.428 14.0388 102.544 14.0818 101.655C14.139 94.2861 14.1032 86.9167 14.1032 79.5476ZM17.6155 56.6225C19.4095 58.2303 21.2306 58.7537 23.0571 59.1943C30.4137 60.9691 37.8312 61.0021 45.2286 59.5852C47.3733 59.1747 49.4174 58.1981 51.4755 57.3984C52.2209 57.1087 52.2731 56.535 51.508 56.1206C50.7426 55.6741 49.9426 55.2896 49.1157 54.9707C44.5068 53.3609 39.7161 52.9569 34.878 52.976C30.1543 52.995 25.4668 53.363 20.9769 54.9764C19.8972 55.3637 18.9014 55.9836 17.6155 56.6213V56.6225ZM17.9068 76.8282C17.9446 77.3227 17.9399 77.8195 17.8928 78.3133C17.6775 79.5715 18.3063 80.2911 19.3707 80.7007C20.6625 81.2489 21.9903 81.7084 23.3448 82.0759C30.5523 83.7673 37.8163 83.7659 45.0679 82.4475C47.0119 82.0941 48.8959 81.3403 50.7525 80.6275C51.063 80.4956 51.3442 80.3033 51.5797 80.0619C51.8151 79.8205 52.0002 79.5348 52.124 79.2213C52.3596 78.4642 52.1837 77.5793 52.1837 76.8228C40.6887 80.5072 29.3365 80.5111 17.9068 76.827V76.8282ZM17.9068 92.0478C17.9443 92.5787 17.9395 93.1117 17.8922 93.6418C17.7079 94.8098 18.292 95.4764 19.2726 95.8638C20.4926 96.3939 21.7468 96.8415 23.027 97.2035C30.0756 98.9405 37.1994 99.0072 44.3178 97.7826C46.5185 97.4039 48.6511 96.5744 50.7719 95.8292C51.0744 95.715 51.35 95.5397 51.5816 95.3143C51.8131 95.0889 51.9957 94.8182 52.1178 94.5192C52.3456 93.7204 52.1774 92.8088 52.1774 92.0332C40.7074 95.717 29.3893 95.7241 17.9068 92.0463V92.0478ZM17.9068 61.6145C17.9441 62.1542 17.9393 62.6959 17.8922 63.2348C17.7082 64.4108 18.3096 65.0575 19.2917 65.4436C20.4772 65.9614 21.6956 66.4006 22.939 66.7584C30.1773 68.543 37.4835 68.5927 44.7856 67.2681C46.8399 66.8957 48.8229 66.0945 50.8113 65.4109C51.8038 65.0697 52.3819 64.3593 52.2001 63.1889C52.1536 62.6601 52.1488 62.1284 52.1857 61.5988C40.7575 65.3103 29.397 65.3034 17.9068 61.6134V61.6145ZM17.9068 99.641C17.9422 100.157 17.9376 100.676 17.8931 101.191C17.7115 102.394 18.283 103.092 19.3242 103.493C20.4965 103.944 21.6552 104.47 22.8677 104.77C30.1797 106.579 37.5578 106.627 44.9311 105.27C46.9481 104.899 48.9016 104.122 50.8345 103.4C51.1296 103.275 51.3961 103.092 51.6176 102.861C51.8391 102.629 52.0111 102.355 52.1228 102.056C52.3417 101.279 52.1789 100.394 52.1789 99.6312C40.7238 103.334 29.3627 103.347 17.9068 99.6398V99.641ZM52.0841 84.2726C46.6383 86.6476 40.8437 87.1486 35.0267 87.1466C29.222 87.1445 23.4399 86.6529 17.9724 84.2732C17.7315 87.558 17.9724 87.9352 20.86 88.9565C20.9298 88.9812 21.0043 88.9922 21.0741 89.016C25.6954 90.6032 30.4957 90.9852 35.3285 90.9664C40.0121 90.9486 44.6607 90.5311 49.1315 88.9752C52.0534 87.9579 52.3515 87.5104 52.1512 84.512C52.1336 84.4305 52.1112 84.3502 52.0841 84.2714V84.2726ZM52.124 69.0375C46.6142 71.4113 40.8693 71.9133 35.0718 71.9177C29.2399 71.9219 23.4632 71.4074 17.9876 69.0673C17.8463 72.4578 17.3913 72.2622 20.784 73.7065C20.9199 73.7643 21.0594 73.8149 21.2014 73.8619C25.614 75.341 30.1853 75.7275 34.7927 75.7397C39.6621 75.7525 44.4955 75.3845 49.1434 73.7547C52.141 72.7017 52.3542 72.3664 52.1237 69.0363L52.124 69.0375Z" fill="#5E116C"/>
<path d="M-47.511 14.9987C-48.1156 17.6875 -48.714 20.3498 -49.3082 23.0133C-49.833 25.3597 -50.3443 27.7087 -50.8756 30.0534C-51.169 31.3473 -51.9162 31.9148 -52.9519 31.6712C-53.9189 31.4438 -54.3235 30.6292 -54.0483 29.376C-52.8533 23.9574 -51.6507 18.5412 -50.4406 13.1275C-50.1091 11.6448 -49.4105 11.2 -47.9606 11.5254C-23.5701 17.0036 0.819851 22.4836 25.2092 27.9654C25.9316 28.1276 26.6555 28.2866 27.3732 28.468C28.6099 28.78 29.2005 29.5079 28.9969 30.4404C28.7775 31.4461 27.9185 31.9034 26.6257 31.6197C23.1883 30.8656 19.7589 30.0799 16.326 29.309C-4.77609 24.5704 -25.8785 19.8324 -46.9811 15.0952C-47.121 15.0639 -47.2632 15.0434 -47.511 14.9987Z" fill="#5E116C"/>
<path d="M-10.6888 77.2653C-19.9455 77.2441 -27.5207 69.6595 -27.4318 60.5011C-27.4272 57.1901 -26.4395 53.9548 -24.5936 51.2044C-22.7477 48.4539 -20.1265 46.3118 -17.0615 45.0489C-13.9964 43.786 -10.6252 43.4591 -7.3741 44.1094C-4.12298 44.7598 -1.13799 46.3582 1.20342 48.7026C3.54483 51.0469 5.1375 54.0319 5.78003 57.2802C6.42257 60.5284 6.0861 63.8939 4.81319 66.9512C3.54029 70.0085 1.3881 72.6202 -1.37122 74.4561C-4.13054 76.292 -7.37306 77.2696 -10.6888 77.2653ZM3.0218 60.63C3.03409 58.8313 2.69056 57.0479 2.01092 55.3821C1.33128 53.7163 0.328909 52.2009 -0.938671 50.9229C-2.20625 49.6449 -3.71409 48.6294 -5.37565 47.9348C-7.03721 47.2401 -8.81979 46.8799 -10.6211 46.8749C-18.0916 46.8133 -24.3117 52.9453 -24.3767 60.4329C-24.3896 62.2293 -24.0481 64.0108 -23.3716 65.6754C-22.6952 67.3401 -21.697 68.8554 -20.434 70.1348C-19.1711 71.4142 -17.6682 72.4327 -16.0111 73.1322C-14.354 73.8316 -12.5751 74.1982 -10.7761 74.2112C-8.97712 74.2241 -7.19317 73.8831 -5.52614 73.2076C-3.85912 72.5321 -2.34166 71.5353 -1.0604 70.2742C0.220856 69.013 1.24081 67.5122 1.94124 65.8575C2.64166 64.2028 3.00884 62.4264 3.0218 60.63Z" fill="#5E116C"/>
<path d="M-27.0297 3.72611C-28.0536 5.76823 -29.0336 7.71299 -30.0038 9.66133C-30.3798 10.4155 -30.9117 10.9395 -31.8195 10.8502C-32.8449 10.7495 -33.5727 9.69378 -33.1251 8.73837C-31.8707 6.06119 -30.5533 3.41488 -29.1728 0.799435C-28.6043 -0.272388 -27.5911 -0.0839271 -26.6278 0.317411C-21.7778 2.33839 -16.9267 4.3568 -12.0744 6.37262C-2.16792 10.4964 7.73762 14.6221 17.6423 18.7498C18.0932 18.9141 18.5214 19.1352 18.9163 19.4078C19.5543 19.8969 19.7669 20.6862 19.3092 21.2742C18.9458 21.7411 18.2126 22.0126 17.594 22.1546C17.2296 22.2383 16.7591 21.9194 16.3516 21.7494C2.27635 15.8943 -11.798 10.0371 -25.8714 4.17776C-26.2116 4.03604 -26.5589 3.90951 -27.0297 3.72611Z" fill="#5E116C"/>
<path d="M12.1112 46.9776C9.7054 46.9776 7.2996 46.9934 4.89411 46.9717C3.58224 46.9598 2.8306 46.1809 2.99637 45.0838C3.13173 44.1861 3.81838 43.7092 5.08761 43.702C7.78947 43.6871 10.4913 43.697 13.1929 43.697C15.1905 43.697 17.1932 43.6353 19.1858 43.7342C19.8656 43.764 20.5097 44.0467 20.9914 44.5267C21.8432 45.561 20.9419 46.9455 19.438 46.9681C16.9955 47.0035 14.5525 46.9773 12.1112 46.9776Z" fill="#5E116C"/>
</svg>
