<svg width="84" height="82" viewBox="0 0 84 82" fill="none" xmlns="http://www.w3.org/2000/svg">
<path d="M-0.000976562 8.27195V6.6516C0.251475 5.8601 0.405488 5.0203 0.773809 4.28522C2.20936 1.41836 4.63338 0.035662 7.83383 0.0159759C12.7826 -0.0146694 17.7319 0.00785773 22.6815 0.00785773C30.939 0.00785773 39.1966 -0.0124371 47.4549 0.0147581C53.1782 0.0332265 56.8317 5.38622 54.6277 10.4666C54.4604 10.8522 54.2529 11.222 54.0256 11.6752C58.1682 11.6752 62.2119 11.6697 66.2548 11.6809C66.9102 11.6836 67.5648 11.7249 68.2152 11.8045C71.2368 12.1698 73.9332 14.6884 74.483 17.6348C75.0777 20.8197 73.6124 24.0165 70.912 25.5338C69.6177 26.2463 68.1563 26.6081 66.6755 26.5826C65.438 26.5853 64.2006 26.5826 62.9307 26.5826C63.1869 27.5162 63.6643 28.0065 64.5346 28.2361C65.5077 28.5033 66.4555 28.8536 67.3674 29.2829C75.6302 33.0809 80.9534 39.3205 83.1994 48.0606C83.5737 49.5165 83.7384 51.0252 83.9992 52.5094V56.0736C83.9537 56.335 83.8887 56.5946 83.8657 56.858C83.5339 60.8246 82.313 64.6681 80.2916 68.1091C77.3671 73.2037 72.8606 77.2294 67.441 79.5885C61.7942 82.0878 55.9169 82.6269 49.8976 81.2833C44.7443 80.1505 40.036 77.5567 36.3481 73.8189C36.167 73.6238 35.9447 73.4705 35.6971 73.3699C35.4495 73.2692 35.1826 73.2237 34.9152 73.2364C28.8457 73.2589 22.7762 73.2616 16.7065 73.2445C11.3111 73.2242 7.55779 68.3534 9.27573 63.4963C9.73613 62.1941 10.6908 61.0623 11.4405 59.8139C8.01573 56.7977 7.8689 51.6312 11.6046 48.2946C7.91565 45.0131 7.96938 39.8466 11.6626 36.5797C11.5025 36.4376 11.3386 36.3025 11.186 36.1558C8.70459 33.7709 8.14431 30.2323 9.82472 27.2434C11.2988 24.6213 13.6392 23.4077 16.6268 23.3458C17.9284 23.3188 19.2312 23.3411 20.6547 23.3411C18.9433 20.5023 18.9511 17.7397 20.6512 14.9147H19.6443C15.7068 14.9147 11.7693 14.9234 7.83321 14.9114C5.21088 14.9035 2.97429 13.9726 1.50101 11.8033C0.794314 10.7636 0.48752 9.45778 -0.000976562 8.27195ZM56.0899 30.1499C42.5687 30.1734 31.5296 41.0752 31.5011 54.4323C31.4726 67.7894 42.6059 78.7824 56.1289 78.758C69.652 78.7337 80.6868 67.8365 80.7155 54.4764C80.7444 41.1225 69.6134 30.1269 56.0904 30.1503L56.0899 30.1499ZM27.6477 11.6748C33.7727 11.6748 39.8977 11.6748 46.0227 11.6748C46.6789 11.6748 47.3372 11.699 47.9904 11.6533C48.6335 11.6175 49.2599 11.4372 49.8221 11.1262C50.3843 10.8151 50.8676 10.3814 51.2352 9.85803C51.6028 9.33463 51.8452 8.73524 51.9439 8.10534C52.0426 7.47544 51.995 6.83157 51.8048 6.22257C51.2259 4.34732 49.5869 3.25058 47.3278 3.24997C34.2028 3.24713 21.0778 3.24713 7.95277 3.24997C7.67939 3.24582 7.40597 3.25612 7.13369 3.28082C6.49977 3.34168 5.88779 3.54286 5.34307 3.86947C4.79836 4.19608 4.33485 4.63976 3.98687 5.16766C3.63889 5.69555 3.41535 6.29414 3.33279 6.91911C3.25024 7.54409 3.31079 8.17943 3.50996 8.77811C4.10735 10.5919 5.71558 11.6705 7.87812 11.6726C14.4681 11.6789 21.0579 11.6797 27.6477 11.6748ZM47.085 14.9155C40.9326 14.9155 34.7803 14.9155 28.6279 14.9155C27.9717 14.9155 27.3134 14.8911 26.6592 14.9358C26.0091 14.9711 25.3759 15.1542 24.8088 15.4707C24.2417 15.7872 23.7559 16.2287 23.389 16.761C23.0221 17.2933 22.784 17.9021 22.6932 18.5401C22.6024 19.1781 22.6612 19.8283 22.8652 20.4402C23.4692 22.2783 25.0821 23.3385 27.3134 23.3389C40.4384 23.3417 53.5634 23.3417 66.6884 23.3389C66.9618 23.343 67.2352 23.3328 67.5075 23.3083C68.1483 23.248 68.7668 23.0441 69.3162 22.712C69.8655 22.3799 70.3313 21.9284 70.678 21.3916C71.0248 20.8549 71.2435 20.2471 71.3175 19.6143C71.3915 18.9815 71.319 18.3403 71.1054 17.7393C70.4852 15.9599 68.9063 14.9183 66.7708 14.9163C60.2094 14.9112 53.6475 14.9109 47.085 14.9155ZM57.7539 27.0169L57.7652 26.7247C57.1844 26.6774 56.6039 26.5889 56.0231 26.5887C43.0157 26.581 30.008 26.5794 17 26.5839C16.6722 26.5774 16.3443 26.5873 16.0175 26.6135C15.3629 26.6718 14.7309 26.8799 14.1715 27.2214C13.6122 27.5628 13.1406 28.0283 12.7942 28.581C12.4477 29.1338 12.2358 29.7586 12.1752 30.4063C12.1146 31.0539 12.207 31.7066 12.445 32.3129C13.0959 34.0081 14.6473 35.0038 16.7051 35.0062C22.799 35.0136 28.8931 34.9825 34.9866 35.0353C35.4393 35.0501 35.8903 34.9729 36.3117 34.8085C36.7331 34.644 37.1159 34.3957 37.4364 34.079C42.167 29.8347 47.7334 27.4665 54.1152 27.0289C55.3232 26.9463 56.5413 27.0172 57.7546 27.0172L57.7539 27.0169ZM33.2635 38.2498H32.6251C30.0274 38.2498 27.4301 38.2498 24.8332 38.2498C22.017 38.2498 19.2005 38.2173 16.3852 38.2642C15.2782 38.2645 14.2153 38.6931 13.4235 39.4586C12.6316 40.224 12.1737 41.2656 12.1474 42.3607C12.0859 44.6114 13.8508 46.5987 16.1789 46.6393C20.5501 46.7158 24.9238 46.6614 29.0812 46.6614L33.2635 38.2498ZM28.8953 61.5956C24.7913 61.5956 20.5036 61.5628 16.2168 61.6113C15.3627 61.6297 14.5356 61.9107 13.8501 62.4152C13.1646 62.9197 12.6547 63.6228 12.3911 64.427C12.1639 65.0536 12.0923 65.7251 12.1821 66.3849C12.2718 67.0447 12.5205 67.6735 12.907 68.2183C13.2936 68.7632 13.8067 69.2082 14.4033 69.5159C14.9999 69.8236 15.6624 69.9849 16.3351 69.9864C21.7697 70.0505 27.2069 70.0067 32.6429 70.0067C32.6988 70.0082 32.7547 70.0026 32.8091 69.9898L28.8953 61.5956ZM28.3849 49.9445C24.3123 49.9445 20.1668 49.9029 16.0232 49.9675C14.6045 49.9894 13.4928 50.7679 12.7612 51.9842C11.0435 54.8403 13.0732 58.2975 16.5209 58.334C20.3149 58.3746 24.1088 58.3444 27.9028 58.3409C28.0644 58.3333 28.2253 58.3154 28.3845 58.2872L28.3849 49.9445Z" fill="#5E116C"/>
<path d="M54.4669 65.2149C52.7173 64.7373 51.1911 63.916 50.3072 62.3736C49.7891 61.4063 49.4358 60.3611 49.2613 59.28C49.0788 58.2904 49.7839 57.5614 50.7057 57.4807C51.639 57.3995 52.4388 57.9708 52.4606 58.9949C52.5157 61.6087 55.8854 63.0159 58.2608 61.5082C59.3176 60.8385 59.8664 59.6839 59.6652 58.6156C59.431 57.3717 58.3621 56.3401 56.9883 56.0856C56.4221 55.9942 55.8512 55.9333 55.2783 55.9029C51.1224 55.5876 48.2714 51.5661 49.5579 47.7489C50.24 45.725 51.7112 44.4093 53.7491 43.7398C54.2538 43.574 54.496 43.3948 54.4874 42.8062C54.4728 41.7509 55.1971 41.0367 56.1157 41.0469C56.336 41.049 56.5536 41.0955 56.7552 41.1836C56.9568 41.2716 57.1382 41.3994 57.2883 41.5591C57.4384 41.7187 57.554 41.907 57.6282 42.1123C57.7024 42.3177 57.7336 42.5358 57.7198 42.7535C57.71 43.4232 58.0219 43.5734 58.5637 43.7743C61.0694 44.7032 62.6068 46.4532 62.9524 49.1222C63.1021 50.279 62.5217 51.1148 61.5519 51.2195C60.53 51.3297 59.8746 50.7257 59.7062 49.5188C59.4857 47.9431 58.4095 46.8944 56.7393 46.628C55.085 46.3641 53.4441 47.1232 52.7875 48.4563C51.8646 50.3294 53.3121 52.4094 55.6381 52.703C56.8935 52.8616 58.2015 53.0562 59.3446 53.5526C61.7324 54.5901 63.1482 57.0417 62.9745 59.3916C62.8692 60.665 62.381 61.8779 61.5729 62.8742C60.7648 63.8705 59.6737 64.6045 58.4402 64.9817C58.0387 65.1099 57.7325 65.1858 57.7225 65.7517C57.7034 66.8494 57.0232 67.5056 56.087 67.4954C55.1375 67.4851 54.5331 66.8257 54.4669 65.7224C54.4599 65.5879 54.4669 65.4529 54.4669 65.2149Z" fill="#5E116C"/>
<path d="M77.4284 53.607C77.4139 57.7435 76.6286 61.044 75.0301 64.1508C74.5651 65.0541 73.6815 65.4154 72.8612 65.0495C72.022 64.675 71.7092 63.8222 72.0335 62.8732C72.6499 61.0694 73.492 59.3013 73.815 57.4462C74.9634 50.8503 72.7886 45.3301 67.7744 40.9111C66.708 39.972 65.4033 39.2922 64.1821 38.5339C63.549 38.1408 63.0121 37.7175 63.0088 36.9136C63.0035 35.6502 64.2969 34.973 65.5676 35.5851C67.7095 36.6119 69.653 38.0023 71.3097 39.6932C75.2878 43.7509 77.2951 48.6254 77.4284 53.607Z" fill="#5E116C"/>
<path d="M34.7891 55.1833C34.812 51.1325 35.5952 47.8581 37.1823 44.7773C37.6587 43.8527 38.4948 43.5125 39.3461 43.8701C40.2199 44.2369 40.5116 45.0994 40.1613 46.1083C39.5448 47.8837 38.727 49.6296 38.4044 51.4586C37.258 57.955 39.3744 63.4255 44.2532 67.8378C45.3647 68.8432 46.7484 69.5613 48.032 70.3725C48.6327 70.752 49.1611 71.1437 49.2067 71.9096C49.2848 73.2239 47.9645 73.9687 46.6672 73.3349C43.6372 71.8699 41.0084 69.7041 39.0034 67.0208C36.2355 63.3326 34.8576 59.1721 34.7891 55.1833Z" fill="#5E116C"/>
<path d="M60.2891 35.0015C60.2865 35.2172 60.2411 35.4302 60.1553 35.6284C60.0695 35.8267 59.9451 36.0063 59.7891 36.1569C59.6332 36.3075 59.4488 36.4263 59.2464 36.5063C59.0441 36.5864 58.8278 36.6262 58.6099 36.6235C58.3932 36.6287 58.1776 36.591 57.9758 36.5128C57.7739 36.4346 57.5899 36.3173 57.4343 36.1679C57.2788 36.0184 57.155 35.8398 57.07 35.6424C56.985 35.4451 56.9406 35.233 56.9395 35.0184C56.9383 34.8039 56.9804 34.5913 57.0632 34.3931C57.146 34.1948 57.2679 34.0149 57.4217 33.8638C57.5756 33.7127 57.7584 33.5935 57.9594 33.5131C58.1603 33.4327 58.3755 33.3927 58.5923 33.3956C59.0322 33.3869 59.4576 33.551 59.7756 33.852C60.0936 34.1529 60.2782 34.5662 60.2891 35.0015Z" fill="#5E116C"/>
<path d="M55.2761 73.8712C55.2687 74.3062 55.0903 74.7211 54.7786 75.0278C54.4669 75.3345 54.0467 75.5089 53.6071 75.5137C53.3895 75.5232 53.1722 75.4894 52.9679 75.4144C52.7637 75.3394 52.5767 75.2247 52.418 75.077C52.2593 74.9293 52.1321 74.7516 52.0439 74.5545C51.9558 74.3574 51.9084 74.1448 51.9045 73.9292C51.9007 73.7137 51.9406 73.4996 52.0218 73.2995C52.1029 73.0994 52.2238 72.9175 52.3772 72.7644C52.5306 72.6113 52.7134 72.4902 52.9148 72.4082C53.1163 72.3261 53.3323 72.2849 53.5501 72.2868C53.9895 72.277 54.4155 72.4369 54.7377 72.7327C55.0599 73.0285 55.253 73.4369 55.2761 73.8712Z" fill="#5E116C"/>
</svg>
