<svg width="79" height="79" viewBox="0 0 79 79" fill="none" xmlns="http://www.w3.org/2000/svg">
<path d="M0.000976562 41.9861V37.0509C0.0454977 36.8278 0.0980569 36.6057 0.133303 36.3811C0.445981 34.3799 0.617469 32.3451 1.087 30.3816C6.96111 5.81699 34.0751 -7.28852 57.1854 4.22434C73.5562 12.3798 81.9717 30.3579 78.0456 48.2109C74.6577 63.6155 61.8593 75.7951 46.3037 78.4017C44.865 78.6427 43.413 78.8024 41.9671 78.9992H37.03C36.8581 78.958 36.6882 78.9013 36.5147 78.8755C34.7124 78.6124 32.8926 78.4383 31.1093 78.0817C15.7963 75.0177 3.11869 61.864 0.619325 46.4742C0.376108 44.9852 0.205032 43.483 0.000976562 41.9861ZM39.4879 74.0642C58.511 74.0737 74.0124 58.6043 74.0573 39.5662C74.1022 20.5337 58.5693 4.9811 39.5073 4.97286C20.4838 4.96441 4.98116 20.4348 4.9387 39.4696C4.89644 58.4978 20.4329 74.0549 39.4879 74.0642Z" fill="#5E116C"/>
<path d="M41.9648 59.0003C41.9648 59.9196 41.978 60.7928 41.9619 61.6637C41.9351 63.1085 40.8715 64.1906 39.499 64.1918C38.1265 64.193 37.0578 63.1074 37.0322 61.667C37.0167 60.7949 37.0293 59.9225 37.0293 59.1328C35.8994 58.6189 34.7684 58.2402 33.7803 57.6304C30.3623 55.5202 28.567 52.4094 28.4007 48.3919C28.3378 46.8712 29.355 45.746 30.7537 45.6906C32.1858 45.634 33.2628 46.7115 33.3281 48.2661C33.4672 51.5721 35.9763 54.169 39.1711 54.3134C42.4215 54.4605 45.1431 52.1842 45.6246 48.9153C46.1446 45.384 43.293 42.0708 39.6194 41.9941C35.6931 41.9117 32.5455 40.3339 30.3198 37.1053C26.0209 30.8696 29.1992 22.2621 36.5138 20.2083C36.6618 20.1671 36.8049 20.1082 37.0291 20.0301C37.0291 19.1835 37.0213 18.3171 37.0308 17.451C37.0475 15.9413 38.0844 14.8479 39.4906 14.8446C40.8921 14.8411 41.9446 15.9395 41.964 17.4407C41.9747 18.2871 41.9658 19.1337 41.9658 19.977C42.7591 20.2819 43.5529 20.5079 44.272 20.8767C48.2159 22.8969 50.3461 26.1306 50.5897 30.5622C50.6763 32.1382 49.6603 33.2867 48.2412 33.3448C46.786 33.4043 45.7315 32.3189 45.6648 30.692C45.6383 29.8744 45.4496 29.0702 45.1096 28.326C44.7696 27.5819 44.2852 26.9126 43.6844 26.3571C43.0836 25.8017 42.3784 25.371 41.6097 25.0901C40.8411 24.8093 40.0243 24.6839 39.2067 24.7211C35.8365 24.8501 33.1931 27.7647 33.3347 31.1954C33.4697 34.4689 36.1585 36.9813 39.6039 37.0517C42.2585 37.0779 44.8159 38.0537 46.8127 39.8023C48.8096 41.5509 50.1138 43.9566 50.4891 46.5836C50.8645 49.2107 50.286 51.8852 48.8586 54.1226C47.4313 56.36 45.2494 58.0124 42.7082 58.7803C42.4873 58.8472 42.2655 58.9113 41.9648 59.0003Z" fill="#5E116C"/>
</svg>
