<svg width="82" height="82" viewBox="0 0 82 82" fill="none" xmlns="http://www.w3.org/2000/svg">
<path d="M-0.000976562 38.5962C0.208389 37.0443 0.350339 35.4796 0.638007 33.9421C2.93747 21.6588 9.46966 12.2558 20.1157 5.76533C27.0402 1.54385 34.6471 -0.342532 42.7378 0.0513618C54.3402 0.616459 64.0619 5.28897 71.7877 13.962C77.6055 20.492 81.0096 28.179 81.8005 36.8754C82.9791 49.8308 78.9232 61.0191 69.7082 70.2241C63.5648 76.3608 56.0995 80.0449 47.5335 81.476C46.1706 81.7037 44.7908 81.8283 43.418 81.9993H38.6112C38.4086 81.9405 38.2019 81.8965 37.993 81.8674C31.5768 81.4147 25.5749 79.5802 20.0983 76.2252C9.47259 69.7161 2.93328 60.3303 0.637797 48.052C0.350548 46.5151 0.208389 44.9513 -0.000976562 43.4V38.5962ZM41.016 78.446C61.6175 78.4532 78.4786 61.5978 78.4754 40.9956C78.4723 20.3934 61.61 3.53717 41.0126 3.55015C20.3889 3.56334 3.5507 20.3984 3.55342 41.0004C3.55635 61.6072 20.396 78.4389 41.016 78.4471V78.446Z" fill="#5E116C"/>
<path d="M41.6178 10.6841C50.4459 10.88 58.2623 14.5142 64.3852 21.7332C64.8877 22.3261 65.2331 22.9641 64.9067 23.7797C64.7989 24.0829 64.6087 24.35 64.3575 24.5513C64.1063 24.7525 63.804 24.8799 63.4845 24.9191C62.668 25.0482 62.1268 24.6022 61.6461 24.0191C59.9462 21.9563 57.9507 20.156 55.7242 18.6764C44.5816 11.2548 29.3666 13.3974 20.721 23.6123C20.6004 23.7548 20.484 23.9011 20.3607 24.0413C19.4814 25.043 18.4653 25.2215 17.6367 24.521C16.7883 23.804 16.7452 22.7596 17.631 21.7675C18.6525 20.5702 19.744 19.4344 20.8998 18.3661C26.6323 13.3059 33.3518 10.7785 41.6178 10.6841Z" fill="#5E116C"/>
<path d="M42.0477 71.31C32.4931 71.1813 25.2381 68.0879 19.2457 62.0309C18.4174 61.1938 18.3515 60.1448 19.0573 59.3923C19.7496 58.654 20.772 58.6996 21.703 59.4507C23.586 60.9702 25.3715 62.653 27.4082 63.9315C32.0059 66.8198 37.1071 67.9634 42.5307 67.662C48.4578 67.3326 53.6716 65.2068 58.2213 61.425C59.0814 60.7103 59.8523 59.8878 60.7207 59.1843C61.344 58.6795 62.0678 58.7331 62.7223 59.1923C63.0205 59.3788 63.2482 59.659 63.3697 59.989C63.4912 60.319 63.4996 60.68 63.3935 61.0152C63.2597 61.4177 63.0311 61.7822 62.7269 62.0778C58.4749 66.4182 53.3992 69.3272 47.4485 70.5869C45.346 71.0327 43.1772 71.1648 42.0477 71.31Z" fill="#5E116C"/>
<path d="M34.5969 42.7657C35.9354 44.1029 37.1786 45.3463 38.4237 46.5879C38.9111 47.0738 39.294 47.6082 39.186 48.3449C39.1538 48.6667 39.0301 48.9726 38.8295 49.2263C38.6288 49.4801 38.3597 49.6711 38.0539 49.7767C37.3059 50.0465 36.6321 49.8263 36.0769 49.2781C35.0126 48.2279 33.9564 47.1699 32.9081 46.1042C32.7026 45.8684 32.5125 45.6195 32.3389 45.3593L32.0845 45.515C32.0845 46.275 32.0939 47.0351 32.0824 47.7951C32.0615 49.117 31.3781 49.9102 30.2911 49.892C29.2371 49.8744 28.5341 49.082 28.531 47.8271C28.5192 43.2628 28.5196 38.6983 28.5322 34.1337C28.5366 32.8393 29.2022 32.1212 30.4845 32.0879C31.818 32.0394 33.1532 32.0682 34.4834 32.1743C37.1279 32.414 39.0637 34.5394 39.2274 37.264C39.3725 39.6811 37.5856 42.0133 35.1356 42.6066C35.0091 42.637 34.8871 42.6795 34.5969 42.7657ZM32.1354 39.2286C33.2869 39.1393 34.5058 39.5719 35.324 38.4109C35.538 38.1323 35.6546 37.7912 35.6556 37.4399C35.6567 37.0887 35.5422 36.7468 35.3299 36.467C34.5102 35.2893 33.2877 35.7581 32.1354 35.6539V39.2286Z" fill="#5E116C"/>
<path d="M60.6664 35.6587V39.2265C61.2108 39.2265 61.7319 39.2125 62.2524 39.2293C63.4248 39.2669 64.2064 40.0076 64.1785 41.0361C64.1518 42.0434 63.398 42.7299 62.2564 42.7674C61.752 42.7839 61.2464 42.7701 60.6824 42.7701V46.338C61.2807 46.338 61.8579 46.3298 62.4347 46.3394C63.714 46.3604 64.9978 46.3338 66.2707 46.438C66.6869 46.4859 67.0702 46.6878 67.345 47.0038C67.6199 47.3199 67.7665 47.7274 67.756 48.1461C67.7444 48.5484 67.5956 48.9347 67.3342 49.2409C67.0728 49.5471 66.7146 49.7548 66.3189 49.8294C66.0322 49.8888 65.7404 49.9197 65.4477 49.9217C63.4186 49.9294 61.3894 49.93 59.3602 49.9236C57.7404 49.9167 57.0582 49.2449 57.0562 47.6465C57.0503 43.216 57.0503 38.7854 57.0562 34.3548C57.058 32.7805 57.7291 32.0858 59.2754 32.0747C61.3846 32.0598 63.4941 32.0548 65.6033 32.0766C67.1817 32.0929 68.1012 33.1978 67.6251 34.4701C67.2843 35.3816 66.5293 35.6484 65.6435 35.6553C64.3086 35.6656 62.9734 35.6585 61.6385 35.6589L60.6664 35.6587Z" fill="#5E116C"/>
<path d="M46.4147 46.338C47.9024 46.338 49.3621 46.3298 50.8216 46.3428C51.2743 46.3359 51.7267 46.3731 52.1722 46.4537C52.5504 46.5492 52.8857 46.7687 53.1244 47.0771C53.3631 47.3856 53.4914 47.7651 53.4889 48.1551C53.4771 48.5308 53.346 48.893 53.1147 49.1893C52.8833 49.4857 52.5637 49.7007 52.2019 49.8035C51.8914 49.8796 51.5729 49.9189 51.2531 49.9205C49.1971 49.9308 47.1411 49.9318 45.085 49.9236C43.4683 49.9163 42.7924 49.2421 42.7906 47.6379C42.786 43.2067 42.786 38.7756 42.7906 34.3447C42.7924 32.775 43.4645 32.0843 45.0188 32.0745C47.1282 32.0605 49.238 32.0536 51.3471 32.077C52.9211 32.094 53.8358 33.203 53.357 34.4797C53.0149 35.3904 52.2549 35.6501 51.3691 35.6557C50.034 35.6643 48.6989 35.6585 47.3637 35.6589H46.426V39.2267C46.9517 39.2267 47.4749 39.2121 47.9962 39.2297C49.1375 39.2678 49.8899 39.9574 49.9123 40.9653C49.9354 41.9984 49.1586 42.7301 47.9822 42.7676C47.4797 42.7837 46.9747 42.7703 46.4145 42.7703L46.4147 46.338Z" fill="#5E116C"/>
<path d="M17.8657 35.6587V39.1789C18.1247 39.1946 18.3786 39.2207 18.6328 39.2232C20.5633 39.2385 21.3807 39.7728 21.3669 41.0177C21.3533 42.2503 20.5491 42.7591 18.5943 42.7716C18.3822 42.7729 18.1701 42.7716 17.8615 42.7716C17.847 43.0906 17.8238 43.3713 17.823 43.6523C17.8184 45.0933 17.8391 46.5348 17.8123 47.9753C17.7913 49.1216 17.0881 49.8726 16.0856 49.8954C15.0658 49.9186 14.2765 49.1327 14.2717 47.9678C14.2519 43.3244 14.2519 38.6808 14.2717 34.0371C14.2765 32.8669 14.9111 32.1369 16.076 32.1041C18.4232 32.0381 20.7742 32.0455 23.122 32.0974C24.2107 32.1214 24.938 32.9008 24.9569 33.8423C24.9759 34.8021 24.2163 35.5924 23.0902 35.637C21.6508 35.6941 20.2076 35.656 18.7661 35.6579C18.4791 35.6587 18.1935 35.6587 17.8657 35.6587Z" fill="#5E116C"/>
</svg>
