<svg width="884" height="578" viewBox="0 0 884 578" fill="none" xmlns="http://www.w3.org/2000/svg">
<path d="M882.61 255.064C895.963 391.95 766.915 546.781 484.861 574.295C202.807 601.809 14.8201 471.52 1.46539 334.634C-11.8894 197.748 61.2371 -112.315 420.222 42.0793C779.207 196.473 869.257 118.176 882.61 255.064Z" fill="#FFF4E9"/>
<path d="M549.252 493.324C549.252 493.324 725.523 464.545 732.544 403.206C739.565 341.867 591.512 401.674 591.512 401.674C591.512 401.674 657.152 290.188 628.179 255.522C599.205 220.856 516.696 342.992 516.696 342.992C516.696 342.992 530.17 214.155 491.15 208.954C452.131 203.752 416.106 477.404 416.106 477.404L549.252 493.324Z" fill="#FFDACF"/>
<path d="M595.344 308.272C605.984 292.058 616.526 275.78 626.97 259.44L628.903 256.431C628.67 256.123 628.429 255.818 628.18 255.522C627.893 255.174 627.597 254.853 627.299 254.538C617.352 270.021 607.364 285.476 597.335 300.903C586.799 317.028 576.103 333.045 565.244 348.955C554.448 364.692 543.37 380.234 532.012 395.581C520.751 410.713 509.095 425.544 497.044 440.072C485.179 454.29 472.86 468.136 459.982 481.447C459.634 481.808 459.286 482.163 458.938 482.523L461.898 482.872C473.133 471.243 483.97 459.244 494.406 446.877C506.577 432.523 518.263 417.763 529.595 402.736C541.11 387.463 552.291 371.944 563.137 356.18C574.09 340.359 584.825 324.39 595.344 308.272Z" fill="#FFEBDE"/>
<path d="M732.382 394.364C732.243 393.58 732.063 392.805 731.842 392.041L680.021 411.279L621.568 432.979L563.395 454.572L504.943 476.274L481.008 485.155L486.15 485.769L498.302 481.257L556.755 459.556L614.928 437.963L673.38 416.263L731.553 394.67L732.382 394.364Z" fill="#FFEBDE"/>
<path d="M464.522 471.34C467.683 455.57 470.546 439.744 473.112 423.863C475.905 406.751 478.43 389.598 480.685 372.405C483.054 354.502 485.165 336.565 487.019 318.595C488.915 300.282 490.55 281.944 491.926 263.581C493.26 245.733 494.326 227.864 495.123 209.974C494.36 209.678 493.577 209.438 492.779 209.253C492.092 225.076 491.184 240.887 490.054 256.687C488.762 274.888 487.209 293.067 485.394 311.224C483.596 329.258 481.546 347.265 479.243 365.244C477.018 382.585 474.536 399.891 471.799 417.162C469.253 433.148 466.441 449.089 463.364 464.986C462.991 466.894 462.614 468.802 462.232 470.708C461.934 472.194 464.222 472.84 464.522 471.34Z" fill="#FFEBDE"/>
<path d="M308.416 493.658C308.416 493.658 147.957 451.995 140.935 390.741C133.914 329.488 281.436 395.006 281.436 395.006C281.436 395.006 200.517 290.796 229.489 256.173C258.46 221.551 337.875 348.53 337.875 348.53C337.875 348.53 327.491 214.857 366.509 209.661C405.526 204.464 428.845 471.995 428.845 471.995L308.416 493.658Z" fill="#FFDACF"/>
<path d="M366.353 253.673C367.781 270.348 369.532 286.996 371.458 303.621C373.453 320.831 375.612 338.021 377.936 355.191C380.171 371.884 382.493 388.565 384.902 405.233C387.056 420.227 389.235 435.218 391.441 450.207C391.684 451.869 391.926 453.532 392.167 455.196C392.387 456.702 394.675 456.066 394.457 454.564C392.329 439.923 390.198 425.283 388.063 410.644C385.684 394.164 383.368 377.676 381.115 361.178C378.786 343.983 376.589 326.772 374.525 309.545C372.549 292.852 370.736 276.137 369.228 259.393C367.87 244.325 366.743 229.229 366.128 214.117C366.069 212.663 366.015 211.212 365.968 209.763C365.171 209.895 364.385 210.084 363.615 210.328C364.117 224.788 365.118 239.244 366.353 253.673Z" fill="#FFEBDE"/>
<path d="M422.221 517.517C496.582 517.517 556.864 508.615 556.864 497.634C556.864 486.652 496.582 477.75 422.221 477.75C347.86 477.75 287.578 486.652 287.578 497.634C287.578 508.615 347.86 517.517 422.221 517.517Z" fill="white"/>
<path d="M351.838 428.554C363.297 441.982 375.061 455.141 387.131 468.032C388.641 469.637 390.15 471.238 391.659 472.834C392.713 473.945 394.389 472.265 393.338 471.156C381.211 458.362 369.387 445.291 357.867 431.943C346.215 418.445 334.876 404.688 323.851 390.672C312.681 376.476 301.835 362.033 291.313 347.343C280.69 332.527 270.396 317.483 260.429 302.211C250.392 286.844 240.686 271.265 231.313 255.475C231.158 255.216 231.007 254.953 230.853 254.697C230.373 255.165 229.918 255.657 229.488 256.172C229.385 256.295 229.288 256.423 229.188 256.546C237.481 270.509 246.031 284.314 254.839 297.962C264.779 313.352 275.049 328.522 285.648 343.471C296.076 358.175 306.823 372.642 317.89 386.874C328.891 401.02 340.207 414.913 351.838 428.554Z" fill="#FFEBDE"/>
<path d="M361.064 468.375C362.952 468.686 364.84 468.986 366.73 469.277C368.226 469.505 368.871 467.218 367.363 466.987C351.999 464.624 336.755 461.611 321.632 457.945C306.409 454.256 291.358 449.932 276.481 444.972C261.439 439.964 246.619 434.341 232.023 428.103C217.295 421.81 202.837 414.931 188.647 407.466C174.271 399.912 160.207 391.8 146.456 383.13C144.815 382.095 143.176 381.051 141.542 379.995C141.318 380.809 141.14 381.636 141.011 382.47C154.478 391.099 168.259 399.21 182.355 406.802C196.544 414.43 211.021 421.485 225.787 427.967C240.269 434.314 254.989 440.076 269.949 445.254C284.837 450.391 299.921 454.903 315.201 458.788C330.342 462.637 345.629 465.832 361.064 468.375Z" fill="#FFEBDE"/>
<path d="M605.313 62.4084L654.731 52.2003L700.564 280.45L648.507 291.203L605.313 62.4084Z" fill="#FFC000"/>
<path d="M654.299 290.008C704.301 279.68 734.293 220.27 721.288 157.312C708.283 94.3539 657.206 51.6893 607.205 62.0178C557.203 72.3462 527.211 131.756 540.216 194.714C553.221 257.672 604.297 300.337 654.299 290.008Z" fill="#FFC000"/>
<path d="M612.044 130.995L546.305 144.578C545.706 148.806 545.29 153.111 545.086 157.489L614.545 143.141L612.044 130.995Z" fill="#FF8F00"/>
<path d="M617.477 200.005L614.97 187.862L549.936 201.295C551.019 205.358 552.258 209.322 553.653 213.187L617.477 200.005Z" fill="#FF8F00"/>
<path d="M597.17 162.803L545.301 173.516C545.583 177.61 546.044 181.735 546.685 185.892L599.678 174.944L597.17 162.803Z" fill="#FF8F00"/>
<path d="M626.913 99.1866L554.597 114.124C552.733 118.572 551.142 123.129 549.834 127.77L629.416 111.329L626.913 99.1866Z" fill="#FF8F00"/>
<path d="M564.271 96.0521L644.292 79.521L641.784 67.38L577.02 80.7574C572.233 85.3823 567.959 90.5102 564.271 96.0521Z" fill="#FF8F00"/>
<path d="M668.775 261.852L601.396 275.764C606.976 279.391 612.931 282.406 619.158 284.757L671.283 273.99L668.775 261.852Z" fill="#FF8F00"/>
<path d="M647.915 237.962L575.939 252.83C579.01 256.569 582.307 260.117 585.811 263.452L650.417 250.106L647.915 237.962Z" fill="#FF8F00"/>
<path d="M635.733 224.94L633.224 212.799L559.936 227.937C561.886 231.87 563.993 235.655 566.257 239.292L635.733 224.94Z" fill="#FF8F00"/>
<path d="M700.565 280.452C750.566 270.123 780.558 210.713 767.553 147.755C754.549 84.7972 703.472 42.1326 653.47 52.4611C603.469 62.7895 573.477 122.2 586.482 185.158C599.486 248.115 650.563 290.78 700.565 280.452Z" fill="#FFC000"/>
<path d="M598.428 95.1813C587.668 114.476 582.234 138.506 583.717 164.031L737.578 261.018C752.993 246.646 763.758 225.934 768.242 202.227L598.428 95.1813Z" fill="#FFD660"/>
<path d="M604.909 85.0413L770.051 189.14C771.062 177.337 770.594 165.454 768.658 153.767L626.321 64.0401C618.022 69.7482 610.777 76.8542 604.909 85.0413Z" fill="#FFD660"/>
<path d="M696.19 259.622C737.058 251.19 761.582 202.638 750.964 151.18C740.347 99.7214 698.609 64.842 657.74 73.2746C616.871 81.7072 592.347 130.259 602.965 181.717C613.583 233.176 655.321 268.055 696.19 259.622Z" fill="#F18800"/>
<path d="M610.871 111.765C601.119 131.338 597.714 156.182 602.994 181.748C603.254 182.995 603.544 184.226 603.839 185.454L712.357 253.861C731.408 243.837 745.122 224.02 750.719 199.919L610.871 111.765Z" fill="#FFA421"/>
<path d="M638.815 80.6529C630.13 85.9139 622.684 92.9878 616.984 101.391L752.878 187.054C754.112 175.157 753.509 163.142 751.091 151.428L638.815 80.6529Z" fill="#FFA421"/>
<path d="M659.405 72.9665C697.296 70.8141 733.953 104.261 743.818 152.026C754.451 203.501 729.928 252.076 689.047 260.515C688.499 260.628 687.952 260.703 687.405 260.8C690.384 260.64 693.346 260.26 696.269 259.665C737.152 251.219 761.674 202.645 751.041 151.176C740.549 100.38 699.759 65.7745 659.405 72.9665Z" fill="#FF8F00"/>
<path d="M713.259 177.419C714.244 185.765 711.109 193.794 703.855 201.508C697.238 208.279 690.832 212.002 684.636 212.677L686.473 229.528L679.883 230.248L678.046 213.396C673.348 213.916 668.603 213.846 663.922 213.189C658.619 212.524 653.463 210.981 648.667 208.623L646.369 187.552L654.471 186.667C654.763 192.174 656.553 197.497 659.648 202.061C662.601 205.748 668.454 206.967 677.209 205.718L672.798 165.22C665.4 165.414 658.202 162.801 652.652 157.906C649.806 155.58 647.453 152.71 645.729 149.464C644.005 146.218 642.945 142.66 642.611 139C641.633 131.512 643.587 123.936 648.063 117.854C652.422 111.767 658.998 107.634 666.374 106.347L665.749 100.623L672.338 99.9041L672.963 105.628C674.789 105.442 676.624 105.37 678.459 105.412C680.467 105.449 682.682 105.554 685.104 105.726C689.603 106.106 694.052 106.939 698.384 108.212L700.495 127.542L693.795 128.271C693.949 125.496 693.327 122.733 691.999 120.291C690.671 117.849 688.689 115.825 686.276 114.445C682.505 112.164 678.006 111.404 673.695 112.32L677.677 148.832C682.574 148.298 688.399 149.593 695.154 152.717C700.159 154.76 704.501 158.149 707.697 162.509C710.893 166.87 712.818 172.031 713.259 177.419ZM670.959 148.369L667.081 112.83C663.271 113.319 659.662 115.641 656.256 119.796C654.685 121.557 653.495 123.625 652.761 125.868C652.027 128.112 651.766 130.483 651.993 132.832C652.206 135.104 652.895 137.305 654.016 139.292C655.137 141.279 656.665 143.007 658.499 144.364C661.961 147.291 666.44 148.73 670.959 148.369ZM701.238 182.448C700.415 177.567 697.79 173.172 693.883 170.133C691.935 168.432 689.648 167.166 687.173 166.418C684.697 165.67 682.092 165.459 679.528 165.797L683.807 205.008C686.482 204.715 689.064 203.858 691.383 202.493C693.702 201.128 695.706 199.287 697.261 197.091C698.964 195.096 700.204 192.748 700.892 190.216C701.58 187.684 701.698 185.031 701.238 182.448Z" fill="#FF8F00"/>
<path d="M718.053 176.896C719.038 185.242 715.903 193.272 708.65 200.985C702.032 207.756 695.626 211.479 689.43 212.154L691.269 229.004L684.679 229.723L682.84 212.874C678.143 213.392 673.398 213.323 668.718 212.666C663.415 212.002 658.259 210.458 653.463 208.1L651.164 187.03L659.267 186.147C659.559 191.654 661.349 196.976 664.444 201.541C667.397 205.228 673.25 206.447 682.005 205.198L677.585 164.689C670.187 164.883 662.989 162.27 657.439 157.375C654.593 155.049 652.239 152.179 650.515 148.933C648.791 145.687 647.731 142.129 647.398 138.469C646.42 130.981 648.374 123.405 652.85 117.323C657.209 111.236 663.785 107.103 671.161 105.816L670.536 100.09L677.125 99.373L677.75 105.097C679.576 104.909 681.412 104.837 683.246 104.879C685.255 104.918 687.47 105.022 689.891 105.193C694.39 105.574 698.839 106.407 703.171 107.679L705.28 127.009L698.583 127.74C698.736 124.965 698.114 122.201 696.786 119.76C695.458 117.318 693.476 115.293 691.063 113.914C687.292 111.632 682.793 110.872 678.482 111.789L682.464 148.299C687.361 147.766 693.186 149.062 699.939 152.186C704.948 154.227 709.293 157.617 712.491 161.979C715.689 166.341 717.615 171.505 718.053 176.896ZM675.753 147.846L671.875 112.306C668.065 112.795 664.457 115.12 661.05 119.282C659.479 121.043 658.289 123.11 657.555 125.353C656.821 127.597 656.56 129.968 656.787 132.317C657 134.588 657.69 136.79 658.811 138.777C659.932 140.764 661.459 142.493 663.293 143.85C666.757 146.773 671.235 148.21 675.753 147.846ZM706.032 181.924C705.209 177.043 702.584 172.649 698.677 169.61C696.729 167.91 694.442 166.643 691.967 165.896C689.492 165.148 686.886 164.936 684.322 165.274L688.601 204.485C691.276 204.192 693.858 203.335 696.177 201.97C698.496 200.606 700.5 198.765 702.055 196.569C703.759 194.573 704.999 192.225 705.686 189.693C706.374 187.16 706.492 184.507 706.032 181.924Z" fill="#FFC000"/>
<path d="M682.471 148.315L682.454 148.141L675.293 143.627L675.753 147.838C671.234 148.199 666.756 146.759 663.293 143.833C661.459 142.476 659.931 140.748 658.81 138.761C657.689 136.774 657 134.573 656.787 132.301C656.773 132.181 656.777 132.062 656.766 131.942L648.312 126.614C647.246 130.465 646.937 134.486 647.403 138.455C647.738 142.116 648.798 145.673 650.522 148.92C652.246 152.166 654.6 155.036 657.446 157.363C662.996 162.258 670.194 164.871 677.592 164.677L682.012 205.185C673.256 206.432 667.402 205.213 664.451 201.528C661.356 196.965 659.566 191.643 659.274 186.136L651.171 187.019L653.46 207.979L653.993 208.315C658.64 210.538 663.614 212.002 668.725 212.651C673.405 213.307 678.15 213.377 682.847 212.858L684.448 227.514L687.45 229.406L691.281 228.989L689.442 212.139C695.634 211.463 702.041 207.74 708.662 200.969C715.91 193.255 719.044 185.226 718.065 176.881C717.785 174.381 717.234 171.92 716.422 169.539L682.694 148.294C682.621 148.31 682.544 148.308 682.471 148.315ZM706.032 181.924C706.492 184.507 706.374 187.16 705.686 189.692C704.998 192.224 703.758 194.572 702.055 196.567C700.5 198.764 698.497 200.605 696.178 201.97C693.858 203.335 691.276 204.192 688.601 204.485L684.322 165.274C686.886 164.936 689.492 165.148 691.967 165.896C694.442 166.643 696.729 167.91 698.677 169.61C702.584 172.649 705.208 177.043 706.032 181.924Z" fill="#FFD660"/>
<path d="M691.977 105.426C691.28 105.346 690.584 105.252 689.897 105.203C687.477 105.03 685.262 104.926 683.252 104.89C681.418 104.847 679.582 104.92 677.756 105.107L677.131 99.3817L670.542 100.101L671.167 105.827C664.397 107.02 658.285 110.618 653.955 115.958L660.463 120.061C660.658 119.801 660.839 119.538 661.049 119.282C664.456 115.123 668.064 112.797 671.874 112.306L673.626 128.358L680.786 132.872L678.488 111.801C682.799 110.884 687.298 111.644 691.069 113.926C693.482 115.306 695.464 117.33 696.792 119.772C698.12 122.214 698.742 124.977 698.589 127.752L705.286 127.021L703.74 112.837L691.977 105.426Z" fill="#FFD660"/>
<path d="M773.238 64.3377L776.198 22.3875L781.583 64.0957L807.045 67.5367L781.825 72.4439L778.803 112.376L773.476 72.686L748.014 69.245L773.238 64.3377Z" fill="#FFC000"/>
<path d="M814.708 109.757L816.664 82.0774L820.216 109.591L837.017 111.855L820.377 115.094L818.383 141.442L814.869 115.254L798.069 112.991L814.708 109.757Z" fill="#FFC000"/>
<path d="M64.1844 118.699C64.1844 118.699 -5.31995 82.3142 3.23552 73.3843C11.791 64.4544 46.9829 82.4256 46.9829 82.4256C46.9829 82.4256 38.0425 42.7914 52.1008 42.6051C66.1591 42.4188 64.1844 118.699 64.1844 118.699Z" fill="#FFC000"/>
<path d="M93.9059 73.3843C93.9059 73.3843 77.9007 50.9813 82.451 49.0849C87.0012 47.1885 92.2028 54.8994 92.2028 54.8994C92.2028 54.8994 92.0286 44.0244 97.1919 46.1924C102.355 48.3605 93.9059 73.3843 93.9059 73.3843Z" fill="#FFC000"/>
<path d="M199.871 286.298C266.249 286.298 320.059 232.488 320.059 166.11C320.059 99.7323 266.249 45.9225 199.871 45.9225C133.493 45.9225 79.6836 99.7323 79.6836 166.11C79.6836 232.488 133.493 286.298 199.871 286.298Z" fill="#FFC000"/>
<path d="M96.7069 177.152C93.7781 149.791 101.838 122.388 119.114 100.969C136.39 79.5511 161.466 65.8725 188.827 62.9429C245.803 56.848 295.029 105.696 301.129 162.673C307.229 219.649 273.06 261.392 216.083 267.491C159.106 273.589 102.805 234.131 96.7069 177.152Z" fill="#FF8F00"/>
<path d="M213.181 259.536C264.779 252.185 300.647 204.396 293.296 152.799C285.944 101.201 238.156 65.3323 186.558 72.684C134.96 80.0357 99.0916 127.824 106.443 179.422C113.795 231.019 161.583 266.888 213.181 259.536Z" fill="white"/>
<path d="M201.478 182.537C201.162 182.535 200.856 182.428 200.607 182.234L172.445 160.118C172.298 160.002 172.175 159.859 172.083 159.696C171.992 159.533 171.933 159.353 171.911 159.167C171.888 158.981 171.903 158.793 171.953 158.613C172.004 158.433 172.089 158.264 172.205 158.117C172.32 157.97 172.464 157.847 172.627 157.755C172.79 157.664 172.97 157.605 173.155 157.583C173.341 157.56 173.53 157.575 173.71 157.625C173.89 157.676 174.058 157.761 174.206 157.877L201.256 179.122L243.715 126.028C243.83 125.878 243.975 125.752 244.139 125.657C244.304 125.563 244.486 125.503 244.674 125.48C244.862 125.457 245.053 125.472 245.236 125.524C245.418 125.575 245.589 125.663 245.737 125.782C245.885 125.9 246.008 126.047 246.098 126.214C246.189 126.381 246.245 126.564 246.264 126.752C246.283 126.941 246.264 127.132 246.208 127.313C246.152 127.494 246.061 127.663 245.939 127.808L202.599 182.004C202.465 182.172 202.294 182.307 202.1 182.399C201.905 182.492 201.693 182.539 201.478 182.537Z" fill="#522D34"/>
<path d="M193.102 103.813C192.867 103.813 192.641 103.727 192.467 103.57C192.293 103.414 192.183 103.198 192.158 102.965L190.12 83.9353C190.104 83.6901 190.183 83.448 190.341 83.2597C190.499 83.0714 190.723 82.9516 190.968 82.9255C191.212 82.8994 191.457 82.9689 191.652 83.1195C191.846 83.2701 191.974 83.4901 192.01 83.7334L194.047 102.763C194.074 103.014 194 103.264 193.842 103.46C193.684 103.656 193.455 103.781 193.204 103.808L193.102 103.813Z" fill="#522D34"/>
<path d="M208.89 251.322C208.656 251.321 208.43 251.234 208.256 251.078C208.081 250.921 207.971 250.705 207.946 250.472L205.911 231.442C205.897 231.318 205.909 231.193 205.944 231.073C205.979 230.954 206.037 230.842 206.116 230.745C206.194 230.648 206.291 230.567 206.4 230.508C206.509 230.448 206.63 230.41 206.754 230.397C206.877 230.384 207.003 230.395 207.122 230.43C207.242 230.466 207.353 230.524 207.45 230.602C207.548 230.68 207.628 230.777 207.688 230.887C207.748 230.996 207.785 231.116 207.798 231.24L209.836 250.27C209.862 250.52 209.788 250.771 209.63 250.967C209.472 251.162 209.243 251.288 208.993 251.315C208.959 251.319 208.925 251.321 208.89 251.322Z" fill="#522D34"/>
<path d="M264.215 161.18C263.974 161.177 263.743 161.082 263.569 160.915C263.395 160.748 263.292 160.521 263.279 160.28C263.266 160.039 263.345 159.803 263.5 159.618C263.655 159.433 263.875 159.315 264.114 159.286L283.146 157.248C283.391 157.232 283.633 157.31 283.821 157.468C284.01 157.626 284.129 157.851 284.156 158.096C284.182 158.34 284.112 158.585 283.962 158.779C283.811 158.974 283.591 159.102 283.348 159.138L264.316 161.173C264.283 161.178 264.249 161.18 264.215 161.18Z" fill="#522D34"/>
<path d="M116.709 176.966C116.468 176.962 116.237 176.867 116.063 176.7C115.89 176.533 115.786 176.306 115.774 176.065C115.761 175.824 115.84 175.588 115.996 175.403C116.151 175.219 116.37 175.1 116.609 175.071L135.639 173.034C135.766 173.015 135.895 173.023 136.019 173.055C136.142 173.088 136.258 173.145 136.359 173.223C136.461 173.302 136.545 173.4 136.607 173.512C136.67 173.623 136.709 173.746 136.722 173.874C136.736 174.001 136.724 174.13 136.686 174.252C136.649 174.374 136.587 174.488 136.505 174.586C136.423 174.684 136.322 174.764 136.208 174.822C136.094 174.88 135.969 174.915 135.841 174.923L116.811 176.961C116.777 176.964 116.743 176.966 116.709 176.966Z" fill="#522D34"/>
<path d="M102.361 192.041C105.807 203.944 110.736 212.975 105.431 214.505C100.127 216.036 93.0325 207.637 89.5846 195.735C86.1366 183.832 87.6447 172.94 92.9489 171.402C98.2532 169.865 98.915 180.139 102.361 192.041Z" fill="white"/>
<path d="M282.091 239.052C284.651 245.295 269.873 261.737 245.548 271.712C221.222 281.687 196.555 281.413 194.002 275.17C191.449 268.927 208.238 268.03 232.566 258.056C256.893 248.081 279.54 232.809 282.091 239.052Z" fill="#FF8F00"/>
<path d="M298.542 122.87C302.395 121.847 310.597 130.629 314.18 144.146C317.762 157.663 315.367 170.789 311.512 171.818C307.656 172.848 308.659 163.838 305.068 150.319C301.478 136.801 294.69 123.885 298.542 122.87Z" fill="#FF8F00"/>
<path d="M411.801 342.992L358.671 493.143C375.185 510.382 476.737 508.489 485.399 493.143L432.269 342.992H411.801Z" fill="#71659C"/>
<path d="M464.658 501.971L430.887 353.098L420.754 353.23L415.773 505.301C432.138 505.81 448.513 504.695 464.658 501.971Z" fill="#5F5583"/>
<path d="M391.772 503.655L421.724 337.7L376.767 501.101C381.72 502.217 386.729 503.07 391.772 503.655Z" fill="#E0D0FF"/>
<path d="M422.748 374.512C426.016 374.438 429.237 373.719 432.226 372.394C435.215 371.07 437.912 369.167 440.162 366.796L432.773 345.301L411.655 344.276L404.287 365.711C406.579 368.385 409.406 370.551 412.585 372.066C415.765 373.582 419.227 374.415 422.748 374.512Z" fill="#5F5583"/>
<path d="M184.889 341.133H659.179V342.379C659.179 345.256 658.036 348.015 656.002 350.05C653.967 352.084 651.208 353.227 648.331 353.227H195.736C192.859 353.227 190.1 352.084 188.066 350.05C186.031 348.015 184.889 345.256 184.889 342.379V341.133Z" fill="#71659C"/>
<path d="M480.283 353.225H364.646L357.699 341.131H486.369L480.283 353.225Z" fill="#5F5583"/>
<path d="M421.733 368.978C432.844 368.978 441.851 359.97 441.851 348.859C441.851 337.748 432.844 328.741 421.733 328.741C410.622 328.741 401.614 337.748 401.614 348.859C401.614 359.97 410.622 368.978 421.733 368.978Z" fill="#E0D0FF"/>
<path d="M421.73 363.085C429.587 363.085 435.956 356.716 435.956 348.859C435.956 341.003 429.587 334.634 421.73 334.634C413.874 334.634 407.505 341.003 407.505 348.859C407.505 356.716 413.874 363.085 421.73 363.085Z" fill="#5F5583"/>
<path d="M421.733 363.083C428.235 363.083 433.506 357.4 433.506 350.39C433.506 343.38 428.235 337.697 421.733 337.697C415.23 337.697 409.959 343.38 409.959 350.39C409.959 357.4 415.23 363.083 421.733 363.083Z" fill="#71659C"/>
<path d="M421.732 328.741C418.731 328.74 415.767 329.411 413.058 330.705C410.349 331.998 407.964 333.882 406.077 336.216C404.19 338.551 402.85 341.279 402.154 344.199C401.458 347.119 401.424 350.158 402.055 353.093C408.577 350.81 415.399 349.497 422.302 349.194C428.878 348.763 435.461 349.922 441.494 352.574C442.04 349.668 441.939 346.677 441.199 343.815C440.458 340.953 439.095 338.289 437.207 336.013C435.319 333.738 432.953 331.906 430.277 330.649C427.601 329.392 424.68 328.741 421.724 328.741H421.732Z" fill="#A594E4"/>
<path d="M421.732 334.634C419.652 334.631 417.597 335.085 415.712 335.964C413.827 336.842 412.158 338.124 410.822 339.718C409.486 341.313 408.517 343.181 407.982 345.191C407.448 347.201 407.361 349.304 407.728 351.351C412.51 350.175 417.393 349.453 422.31 349.193C426.869 348.903 431.444 349.367 435.851 350.566C436.097 348.568 435.915 346.54 435.317 344.618C434.72 342.695 433.72 340.922 432.385 339.415C431.05 337.909 429.409 336.703 427.573 335.879C425.736 335.054 423.745 334.63 421.732 334.634Z" fill="#5F5583"/>
<path d="M90.25 306.529H294.516V309.526C294.516 312.952 293.842 316.344 292.532 319.509C291.221 322.674 289.3 325.55 286.877 327.972C284.455 330.394 281.579 332.316 278.414 333.626C275.249 334.937 271.857 335.611 268.431 335.611H116.329C112.904 335.611 109.512 334.936 106.348 333.625C103.183 332.314 100.308 330.393 97.8866 327.97C95.4648 325.548 93.5439 322.673 92.2337 319.508C90.9234 316.343 90.2493 312.951 90.25 309.526V306.529Z" fill="#E0D0FF"/>
<path d="M549.565 306.529H753.831V309.526C753.832 312.952 753.158 316.344 751.847 319.509C750.536 322.674 748.615 325.55 746.193 327.972C743.77 330.394 740.895 332.316 737.73 333.626C734.565 334.937 731.172 335.611 727.747 335.611H575.645C572.219 335.611 568.828 334.936 565.663 333.625C562.499 332.314 559.624 330.393 557.202 327.97C554.78 325.548 552.859 322.673 551.549 319.508C550.239 316.343 549.565 312.951 549.565 309.526V306.529Z" fill="#E0D0FF"/>
<path d="M199.874 335.605H184.893V341.131H199.874V335.605Z" fill="#5F5583"/>
<path d="M659.186 335.605H644.205V341.131H659.186V335.605Z" fill="#5F5583"/>
<path d="M264.737 306.529H251.988L242.745 335.611H255.494L264.737 306.529Z" fill="#AE9DE4"/>
<path d="M201.399 335.605H236.011L245.256 306.524H210.644L201.399 335.605Z" fill="#AE9DE4"/>
<path d="M161.804 306.529H149.056L139.811 335.611H152.559L161.804 306.529Z" fill="white"/>
<path d="M117.675 335.605H130.424L139.669 306.524H126.92L117.675 335.605Z" fill="white"/>
<path d="M725.226 306.529H712.477L703.232 335.611H715.981L725.226 306.529Z" fill="#AE9DE4"/>
<path d="M661.89 335.605H696.502L705.747 306.524H671.135L661.89 335.605Z" fill="#AE9DE4"/>
<path d="M622.296 306.529H609.547L600.302 335.611H613.05L622.296 306.529Z" fill="white"/>
<path d="M578.166 335.605H590.915L600.16 306.524H587.418L578.166 335.605Z" fill="white"/>
<path d="M412.717 351.82C413.215 354.012 412.977 355.936 412.183 356.117C411.389 356.298 410.342 354.665 409.844 352.473C409.346 350.28 409.585 348.354 410.379 348.173C411.173 347.992 412.219 349.625 412.717 351.82Z" fill="#E0D0FF"/>
<path d="M271.991 353.225L278.974 341.131H214.41L207.427 353.225H271.991Z" fill="#5F5583"/>
<path d="M313.026 341.131H289.248L282.265 353.225H306.043L313.026 341.131Z" fill="#5F5583"/>
<path d="M584.532 353.225L591.515 341.131H526.957L519.974 353.225H584.532Z" fill="#5F5583"/>
<path d="M625.567 341.131H601.789L594.806 353.225H618.588L625.567 341.131Z" fill="#5F5583"/>
<path d="M298.74 344.48H227.745C226.742 344.48 225.929 345.293 225.929 346.296V346.714C225.929 347.717 226.742 348.53 227.745 348.53H298.74C299.743 348.53 300.556 347.717 300.556 346.714V346.296C300.556 345.293 299.743 344.48 298.74 344.48Z" fill="#E0D0FF"/>
<path d="M322.386 344.48H310.818C309.815 344.48 309.002 345.293 309.002 346.296V346.714C309.002 347.717 309.815 348.53 310.818 348.53H322.386C323.389 348.53 324.203 347.717 324.203 346.714V346.296C324.203 345.293 323.389 344.48 322.386 344.48Z" fill="#E0D0FF"/>
<path d="M549.227 344.48H501.555C500.551 344.48 499.738 345.293 499.738 346.296V346.714C499.738 347.717 500.551 348.53 501.555 348.53H549.227C550.23 348.53 551.043 347.717 551.043 346.714V346.296C551.043 345.293 550.23 344.48 549.227 344.48Z" fill="#E0D0FF"/>
<path d="M565.483 344.48H558.666C557.663 344.48 556.85 345.293 556.85 346.296V346.714C556.85 347.717 557.663 348.53 558.666 348.53H565.483C566.487 348.53 567.3 347.717 567.3 346.714V346.296C567.3 345.293 566.487 344.48 565.483 344.48Z" fill="#E0D0FF"/>
</svg>
